<svg xmlns="http://www.w3.org/2000/svg" width="50" height="50">
    <path
        d="M17.313 2.031c-3.86.2-6.875 2-6.875 2l-.094.032-.063.062S4.176 9.488 5.687 16.656l.032.188.125.187c.418.574.879 1.074 1.468 1.469-.69-.027-1.367.098-2.03.313l-.22.062-.156.156c-5.433 4.91-3.625 12.813-3.625 12.813v.093l.063.094s3.187 7.442 10.469 8.219l.218.031.188-.062c.656-.215 1.3-.492 1.844-.907-.227.633-.313 1.313-.313 2v.22l.094.187c2.992 6.683 11.062 7.437 11.062 7.437h.188s8.074-.754 11.062-7.437l.094-.188v-.218c0-.692-.086-1.368-.313-2 .543.414 1.188.69 1.844.906l.188.062.218-.031c7.282-.777 10.47-8.219 10.47-8.219l.062-.093v-.094s1.808-7.903-3.625-12.813l-.157-.156-.218-.063c-.664-.214-1.34-.34-2.032-.312.59-.395 1.051-.895 1.47-1.469l.124-.187.032-.188c1.511-7.168-4.594-12.531-4.594-12.531l-.063-.063-.093-.03S35.636 1.691 31 2.061a11.222 11.222 0 00-4.75 1.47l-.188.093-.125.188c-.406.558-.742 1.124-.937 1.78-.195-.655-.531-1.222-.938-1.78l-.125-.188-.187-.094A11.222 11.222 0 0019 2.062a12.896 12.896 0 00-1.688-.03zm.437 2.031c1.531-.03 3.188.239 4.781 1.094.309.453.555.856.625 1.188.074.343.004.742-.187 1.281-.012.008-.02.023-.032.031-1.898.574-4.667 1.926-6.03 4.969l-.095.188v.218c0 .324.102.645.157.969-.282-.148-.547-.371-.844-.469l-.188-.062h-.218c-2.992.32-4.985 2.16-6.188 3.719-.445-.012-.738-.098-1-.25-.281-.165-.586-.5-.906-.907-1.07-5.707 3.766-10.183 3.906-10.312.102-.059 2.852-1.59 6.219-1.657zm13.563 0c3.777-.246 7.046 1.594 7.156 1.657.14.129 4.953 4.62 3.906 10.312-.32.407-.625.742-.906.907-.266.152-.555.238-1 .25-1.203-1.56-3.196-3.399-6.188-3.72h-.218l-.188.063c-.297.098-.559.32-.844.469.055-.324.157-.645.157-.969v-.219l-.094-.187c-1.36-3.047-4.133-4.395-6.032-4.969-.011-.008-.019-.023-.03-.031-.192-.54-.262-.938-.188-1.281.07-.332.316-.735.625-1.188a9.307 9.307 0 013.843-1.093zM25 9.25c.05.008.512.07 1.156.25.012.004.02.027.032.031.132.074.285.117.437.125 1.445.485 3.492 1.508 4.531 3.625-.02.278-.031.547-.093.688-.086.195-.208.383-.594.625-1.43.191-2.563.937-2.938 2-.426 1.207-.097 2.558.907 3.406 1.05.89 2.519.766 3.593.031.953-.652 1.442-1.968 1.188-3.437h.031c.113-.446.219-.61.375-.75.117-.106.387-.207.656-.313 3.52.524 5.336 3.864 5.625 4.438-.058.27 0 .554.157.781.132 1.2.257 4.32-2 6.5-.27.07-.532.14-.688.125-.191-.02-.387-.11-.688-.344-.57-1.336-1.496-2.277-2.624-2.5-1.258-.246-2.618.41-3.25 1.625-.739 1.418-.196 3.059.906 3.938.98.785 2.484.84 3.843.125v.031c.458-.031.66.05.844.156.133.078.297.293.469.5.398 2.364-.7 4.422-1.594 5.657-.293.136-.5.402-.562.718v.032c-.172.195-.278.28-.344.343a1 1 0 00-.719.407c-1.172.519-4.054 1.515-6.75.093-.148-.234-.281-.472-.312-.625-.043-.199-.028-.418.125-.812.004-.016-.008-.016 0-.032 1.066-.988 1.617-2.257 1.343-3.406C27.755 31.977 26.512 31 25 31c-1.512 0-2.754.977-3.063 2.281-.273 1.153.278 2.418 1.344 3.407.008.003-.008.027 0 .03.153.395.168.614.125.813-.031.153-.164.39-.312.625-3.051 1.61-6.317.13-7.063-.25a1.243 1.243 0 00-.125-.062c-.011-.008-.054-.028-.062-.032a.88.88 0 00-.094-.03c-.02-.02-.219-.22-.469-.5a1 1 0 00-.531-.688l-.031-.032c-.903-1.23-2.008-3.285-1.594-5.656.172-.207.336-.422.469-.5.183-.105.386-.187.844-.156 1.32.703 2.753.66 3.718-.031 1.086-.782 1.684-2.192 1.157-3.532-.504-1.277-1.79-2.015-3.094-1.937-1.149.066-2.215.934-2.844 2.25-.352.293-.54.352-.75.375-.156.016-.418-.055-.688-.125-2.257-2.18-2.136-5.3-2-6.5a1 1 0 00.188-.781v-.032c.328-.644 2.125-3.89 5.594-4.406.27.106.539.207.656.313.156.14.262.304.375.75h.031c-.258 1.465.2 2.804 1.157 3.468 1.078.747 2.59.82 3.656-.093.957-.82 1.21-2.149.812-3.344-.347-1.055-1.441-1.828-2.875-2.031-.386-.242-.508-.43-.593-.625-.063-.14-.075-.41-.094-.688 1.027-2.09 3.027-3.133 4.468-3.625.028-.008.07.008.094 0a.99.99 0 00.375-.125c.68-.195 1.164-.273 1.219-.281zm-6.219 7.188H19c1.098 0 1.383.37 1.531.812.149.441-.05 1.016-.25 1.188-.27.23-.808.253-1.218-.032-.41-.285-.708-.73-.375-1.75zm12.219 0h.219l.093.218c.329 1.012.024 1.426-.406 1.719-.43.293-.984.238-1.156.094-.336-.285-.492-.801-.344-1.219.149-.418.485-.813 1.594-.813zm-23.656 4c.183.007.375.05.562.125.004 0-.004.03 0 .03-.187 1.786-.176 5.641 2.782 8.313l.187.125.188.094c.28.09.609.078.906.125-.219.219-.477.41-.656.656l-.126.188-.03.187c-.66 3.125.648 5.735 1.812 7.344-.29.234-.672.414-1.188.594-5.71-.785-8.484-6.73-8.562-6.907-.031-.156-1.309-6.625 2.875-10.625.504-.156.894-.265 1.25-.25zm35.312 0c.356-.016.746.093 1.25.25 4.184 4.003 2.907 10.468 2.875 10.625-.078.175-2.851 6.12-8.562 6.906-.528-.184-.899-.352-1.188-.594 1.164-1.61 2.473-4.219 1.813-7.344l-.032-.187-.124-.188c-.18-.246-.438-.437-.657-.656.301-.047.625-.031.907-.125l.187-.094.188-.125c2.953-2.672 2.968-6.527 2.78-8.312v-.032c.188-.074.38-.117.563-.125zM25 21c-2.2 0-4 1.8-4 4s1.8 4 4 4 4-1.8 4-4-1.8-4-4-4zm0 2c1.117 0 2 .883 2 2s-.883 2-2 2-2-.883-2-2 .883-2 2-2zm8.344 3.469c.097-.012.207.011.312.031.426.082 1.02.465 1.375 1.563l.063.218-.188.157c-.832.605-1.472.464-1.937.093-.465-.37-.649-.91-.375-1.437.207-.399.457-.594.75-.625zm-17 .281c.492-.027.957.23 1.125.656.144.364-.055.867-.5 1.188-.446.32-1.016.468-1.875-.157l-.188-.156.063-.218c.34-1.047.883-1.286 1.375-1.313zM25 33c.723 0 1.023.32 1.125.75.102.43-.035 1.094-.938 1.75l-.187.125-.188-.125c-.902-.656-1.039-1.32-.937-1.75.102-.43.402-.75 1.125-.75zm0 5.688c.14.28.227.593.406.843l.125.188.188.093c3.218 1.852 6.593.965 8.375.25.078.293.113.637.125 1.063-2.512 5.203-9.051 5.98-9.219 6-.168-.02-6.703-.797-9.219-6 .012-.426.047-.77.125-1.063 1.781.715 5.156 1.602 8.375-.25l.188-.093.125-.188c.18-.25.265-.562.406-.843z" />
</svg>