<svg xmlns="http://www.w3.org/2000/svg" width="50" height="50">
    <path
        d="M22 0c-.688 0-1.184.395-1.531.781a3.77 3.77 0 00-.75 1.25c-.293.813-.508 2.067-.719 3.25-.02-.05-.012-.11-.031-.156-.746-1.703-2.23-3.164-4.75-3.688-1.977-.41-3.324.399-3.656 1.563-.086.297-.02.648.093.875.114.227.254.367.375.469.242.199.45.285.656.375.208.09.407.164.563.218.156.055.309.11.219.063 1.48.785 1.847 1.184 2.031 1.625.059.137.117.648.156.875a12.625 12.625 0 00-2.594-.469c-.554-.047-.91-.144-1.218-.343-.309-.2-.664-.555-1-1.407-.078-.195-.196-.683-.406-1.187-.106-.254-.208-.543-.47-.813-.261-.27-.788-.515-1.28-.437-.637.101-1.11.59-1.344 1.031-.235.441-.324.879-.375 1.344-.106.933-.043 1.87.218 2.625.918 2.664 2.715 3.804 4.344 4.218.028.008.035-.007.063 0-.438.247-.938.438-1.281.782C8.129 14.027 7.64 15.746 8 17.53c.082.399.668 3.426 1.219 6.594.277 1.586.55 3.23.75 4.594.199 1.363.312 2.492.312 2.906 0 .555-.219.785-.656 1.031-.438.246-1.16.344-1.094.344-1.273 0-1.562-.332-1.781-.719-.219-.386-.25-.996-.25-1.437 0-1.117.344-2.586.719-4.032.375-1.445.781-2.843.781-4.125 0-4.867-2.96-7.785-4.594-9.28-.773-.712-1.965-.563-2.656.062-.582.527-.66 1.176-.688 1.844-.027.667.067 1.41.313 2.156.422 1.277 1.418 2.492 2.844 3.25.082.449.156.918.156 1.437 0 .766-.453 2.653-.938 4.5-.484 1.848-1 3.63-1 4.969 0 2.426 1.04 4.34 2.438 5.563C5.273 38.41 6.996 39 8.531 39c1.817 0 3.73-.66 5.188-1.969 1.457-1.308 2.406-3.355 2.125-5.781-.496-4.293-2.074-13.688-2.094-13.813v-.03c.008-.016.063-.2.188-.345.132-.152.285-.25.593-.25.852 0 1.328.168 1.688.438-.035.008-.059.02-.094.031-.36.121-.8.524-.938.938-.292.875-.066 1.758.313 2.437.379.68.86 1.297 1.406 2.219 1.094 1.848 2.492 4.93 3.188 11.344.09.824.195 1.613.312 2.375-.582.375-1.187.918-1.812 1.593-.793.86-1.594 1.805-1.594 3.094 0 1.414.766 2.492 1.563 3.25.796.758 1.66 1.313 2.125 1.719.359.313.878 1.148 1.5 1.969.62.82 1.488 1.781 2.812 1.781 1.324 0 2.191-.96 2.813-1.781.62-.82 1.14-1.657 1.5-1.969.464-.406 1.328-.96 2.125-1.719.796-.758 1.562-1.836 1.562-3.25 0-.98-.438-1.886-1.094-2.656-.582-.684-1.37-1.328-2.312-2.063.093-.632.207-1.28.281-1.968.832-7.559 2.246-10.844 3.344-12.5.547-.828 1.02-1.246 1.437-1.719.211-.234.414-.504.563-.875.148-.371.207-.836.125-1.25-.09-.441-.489-.918-.875-1.094-.125-.054-.23-.066-.344-.093.32-.149.738-.25 1.344-.25.308 0 .46.097.593.25.126.144.18.328.188.343v.032c-.02.125-1.598 9.519-2.094 13.812-.281 2.426.668 4.473 2.125 5.781C37.738 38.34 39.652 39 41.47 39c1.535 0 3.258-.59 4.656-1.813 1.398-1.222 2.438-3.136 2.438-5.562 0-1.34-.516-3.121-1-4.969-.485-1.847-.938-3.734-.938-4.5 0-.52.074-.988.156-1.437 1.426-.758 2.422-1.973 2.844-3.25.246-.746.34-1.489.313-2.157-.028-.667-.106-1.316-.688-1.843-.691-.625-1.883-.774-2.656-.063C44.96 14.902 42 17.82 42 22.687c0 1.282.406 2.68.781 4.125.375 1.446.719 2.915.719 4.032 0 .441-.031 1.05-.25 1.437s-.508.719-1.781.719c.066 0-.657-.098-1.094-.344-.438-.246-.656-.476-.656-1.031 0-.414.113-1.543.312-2.906.2-1.364.473-3.008.75-4.594.551-3.168 1.137-6.195 1.219-6.594.36-1.785-.129-3.504-1.313-4.687-.343-.344-.843-.535-1.28-.781.027-.008.034.007.062 0 1.629-.415 3.426-1.555 4.343-4.22.258-.753.325-1.69.22-2.624-.052-.465-.141-.903-.376-1.344-.234-.441-.707-.93-1.343-1.031-.493-.078-1.02.168-1.282.437-.261.27-.363.559-.468.813-.211.504-.329.992-.407 1.187-.683 1.73-1.297 1.965-2.406 2.282-.656.187-1.523.406-2.438.78.055-.405.13-1.019.22-1.312.234-.75.593-1.285 2-2.031-.09.047.062-.008.218-.063a8.41 8.41 0 00.563-.218c.207-.09.414-.176.656-.375.12-.102.261-.242.375-.469.113-.227.18-.578.093-.875-.332-1.164-1.68-1.973-3.656-1.563-2.52.524-4.004 1.985-4.75 3.688-.02.047-.011.105-.031.156-.21-1.183-.426-2.437-.719-3.25a3.9 3.9 0 00-.75-1.281C29.184.363 28.688 0 28 0c-.785 0-1.582.465-1.844 1.063-.261.597-.176 1.062-.156 1.343.332 4.403-.238 8.848-1 11.406-.762-2.558-1.332-7.003-1-11.406.023-.285.105-.746-.156-1.344C23.582.466 22.785 0 22 0zm0 2.063c.004.042.012.07 0 .218-.39 5.172.254 10.114 1.375 13-1.82 1.531-3.273 1.867-4.438 1.938a.954.954 0 00-.125-.157c-.386-.359-1.609-2.25-4.28-2.25-.887 0-1.665.41-2.126.938-.46.527-.691 1.145-.656 1.813v.093s1.645 9.68 2.125 13.844c.21 1.816-.453 3.09-1.5 4.031C11.328 36.473 9.84 37 8.531 37c-.988 0-2.328-.426-3.344-1.313-1.015-.886-1.75-2.19-1.75-4.062 0-.71.454-2.586.938-4.438.484-1.851 1-3.66 1-5.03A9.96 9.96 0 005.156 20a1 1 0 00-.656-.719c-1.145-.383-1.871-1.414-2.219-2.468a4.056 4.056 0 01-.219-1.407c.008-.219.047-.363.063-.437C3.707 16.422 6 18.66 6 22.688c0 .796-.34 2.164-.719 3.625-.379 1.46-.781 3.03-.781 4.53 0 .442-.043 1.442.5 2.407.543.965 1.762 1.75 3.531 1.75.555 0 1.242-.133 2.063-.594.82-.46 1.687-1.43 1.687-2.781 0-.727-.14-1.793-.344-3.188a178.068 178.068 0 00-.75-4.656 340.4 340.4 0 00-1.218-6.625c-.25-1.242.035-2.191.75-2.906.715-.715 1.957-1.219 3.719-1.219-.016 0 .074.024.312.031.45.012.852-.277.984-.707a1.007 1.007 0 00-.421-1.136c-.16-.102-.336-.078-.5-.156-1.313-.622-2.672-.657-3.782-.938-1.25-.316-2.195-.79-2.937-2.938-.07-.203-.074-.703-.094-1.156.438 1.114 1.027 1.88 1.75 2.344.723.465 1.488.57 2.156.625 1.332.11 2.305-.004 3.438.969.32.265.777.304 1.14.097.36-.21.555-.62.485-1.035-.274-1.324-.207-2.199-.625-3.187-.395-.934-1.262-1.668-2.719-2.469.086.008.086-.02.188 0 2.011.418 2.746 1.234 3.312 2.531.566 1.297.816 3.149 1.344 5.125a1.001 1.001 0 001.969-.313c-.055-1.534.578-6.405 1.156-8 .086-.234.222-.491.343-.624.028-.031.043-.016.063-.031zm6 0c.02.015.035 0 .063.03.12.134.257.391.343.626.578 1.594 1.211 6.465 1.157 8a.995.995 0 00.859 1.023.996.996 0 001.11-.742c.527-1.977.777-3.797 1.343-5.094.566-1.297 1.3-2.113 3.313-2.531.12-.023.117.04.218.031-1.539.875-2.43 1.91-2.781 3.031-.367 1.18-.324 2.262-.594 3.563a1.01 1.01 0 00.465 1.066 1 1 0 001.16-.097c1.184-1.016 2.29-1.117 3.625-1.5C39.617 9.086 41.133 8.227 42 6.03c-.02.446-.023.953-.094 1.157-.742 2.148-1.687 2.62-2.937 2.937-1.11.281-2.469.316-3.782.938-.164.078-.34.054-.5.156-.378.242-.55.707-.421 1.136.132.43.535.72.984.707.238-.007.328-.03.313-.03 1.761 0 3.003.503 3.718 1.218.715.715 1 1.664.75 2.906-.097.485-.664 3.434-1.218 6.625a178.068 178.068 0 00-.75 4.657c-.204 1.394-.344 2.46-.344 3.187 0 1.352.867 2.32 1.687 2.781.82.461 1.508.594 2.063.594 1.77 0 2.988-.785 3.531-1.75.543-.965.5-1.965.5-2.406 0-1.5-.402-3.07-.781-4.532-.38-1.46-.719-2.828-.719-3.625 0-4.027 2.293-6.265 3.875-7.718.016.074.055.219.063.437.015.38-.043.88-.22 1.406-.347 1.055-1.073 2.086-2.218 2.47a1 1 0 00-.656.718 9.96 9.96 0 00-.219 2.156c0 1.371.516 3.18 1 5.032.484 1.851.938 3.726.938 4.437 0 1.871-.735 3.176-1.75 4.063-1.016.886-2.356 1.312-3.344 1.312-1.309 0-2.797-.527-3.844-1.469-1.047-.941-1.71-2.215-1.5-4.031.48-4.164 2.125-13.844 2.125-13.844v-.093c.035-.668-.195-1.286-.656-1.813-.461-.527-1.239-.938-2.125-.938-2.63 0-3.844 1.82-4.25 2.22-1.293-.048-2.84-.333-4.594-1.75 1.121-2.887 1.766-7.829 1.375-13-.012-.15-.004-.177 0-.22zm-3.063 14.343c2.356 2.055 4.708 2.586 6.407 2.625.816.02 1.418-.05 1.843-.062-.023.027 0 .031-.03.062-.305.344-.93.934-1.594 1.938-1.329 2.008-2.836 5.66-3.688 13.406-.305 2.79-.766 5.102-1.344 6.625-.289.762-.629 1.32-.906 1.625-.277.305-.43.375-.625.375-.164 0-.332-.063-.625-.406-.293-.344-.637-.938-.938-1.75-.597-1.625-1.07-4.063-1.375-6.844-.722-6.633-2.214-10.063-3.437-12.125-.613-1.031-1.129-1.746-1.375-2.188-.145-.261-.09-.367-.094-.5.399.02.996.07 1.782.032 1.554-.078 3.699-.82 6-2.813zm-4.343 3.657S20.96 22.438 21.78 23c.817.566 2.04-.602 2.125-.688zm8.75 0l-3.313 2.25c.086.085 1.344 1.25 2.157.687.812-.563 1.156-2.938 1.156-2.938zm-.125 18.75c.476.414.883.804 1.156 1.124.469.547.625.899.625 1.344 0 .73-.344 1.246-.938 1.813-.593.566-1.382 1.062-2.062 1.656-.785.688-1.297 1.598-1.813 2.281-.515.684-.898.969-1.187.969-.29 0-.672-.285-1.188-.969-.515-.683-1.027-1.593-1.812-2.281-.68-.594-1.469-1.09-2.063-1.656-.593-.567-.937-1.082-.937-1.813 0-.156.41-1.043 1.063-1.75.234-.254.5-.476.75-.687.214.988.46 1.898.75 2.687.351.95.746 1.75 1.28 2.375C23.38 44.531 24.146 45 25 45c.824 0 1.586-.41 2.125-1 .54-.59.938-1.375 1.281-2.281.32-.84.582-1.82.813-2.907z" />
</svg>