<svg viewBox="0 0 20.615 15.505" xmlns="http://www.w3.org/2000/svg">
  <path
    d="M1.12 4.754c-.616 0-1.12.504-1.12 1.12v8.51c0 .617.504 1.12 1.12 1.12h12.99c.616 0 1.12-.503 1.12-1.12v-8.51c0-.616-.504-1.12-1.12-1.12zm0 .448h12.99c.373 0 .672.298.672.672v8.51a.669.669 0 01-.672.673H1.12a.669.669 0 01-.672-.672V5.874c0-.374.298-.672.672-.672zm5.375 1.12a.224.224 0 100 .448c.261 0 .475.125.64.334.125.16.212.368.246.585-.61.11-1.083.633-1.107 1.27a.224.224 0 00.221.275.224.224 0 00.226-.245.89.89 0 01.983-.87c.46.043.807.463.807.939v.287c0 .642.234 1.231.623 1.683.585.68.54 1.692-.163 2.228a2.227 2.227 0 01-1.356.457c-.51 0-.98-.17-1.356-.457a1.422 1.422 0 01-.562-1.073.224.224 0 00-.226-.243.224.224 0 00-.22.28c.033.528.277 1.042.737 1.392a2.678 2.678 0 001.627.549c.61 0 1.176-.205 1.627-.549.913-.695.97-2.018.232-2.876a2.12 2.12 0 01-.515-1.39v-.288c0-.487-.251-.939-.644-1.189.453-.042.796-.149 1.052-.328.34-.237.488-.61.488-.995v-.224H9.63c-.467 0-.943.053-1.332.247a1.22 1.22 0 00-.594.632 1.648 1.648 0 00-.218-.373 1.264 1.264 0 00-.992-.506zm2.868.468a.627.627 0 01-.253.385c-.18.126-.524.208-.982.24a.697.697 0 01.37-.445c.223-.11.536-.159.865-.18zM6.44 9.631l-.18.09-.035.198.137.147.078.014.18-.09.035-.198-.138-.146zm-.33.78l-.179.09-.035.197.137.147.077.014.18-.09.035-.198-.137-.147-.078-.013zm-.472.702l-.18.09-.035.197.137.147.078.014.18-.09.034-.197-.136-.147z" />
  <path
    d="M18.321 2.681a.155.155 0 01.295 0l.277.832a1.24 1.24 0 00.785.784l.83.277a.155.155 0 010 .295l-.83.277a1.24 1.24 0 00-.785.785l-.277.83a.155.155 0 01-.295 0l-.277-.83a1.24 1.24 0 00-.784-.785l-.832-.277a.155.155 0 010-.295l.832-.277a1.24 1.24 0 00.784-.784zM16.663.492a.093.093 0 01.177 0l.166.499a.745.745 0 00.47.47l.5.167a.093.093 0 010 .177l-.5.166a.744.744 0 00-.47.471l-.166.499a.093.093 0 01-.177 0l-.166-.499a.744.744 0 00-.471-.471l-.499-.166a.093.093 0 010-.177l.499-.166a.744.744 0 00.47-.471zm3.034-.45a.062.062 0 01.118 0l.11.332c.05.149.167.265.315.314l.332.111a.062.062 0 010 .118l-.332.11a.496.496 0 00-.314.315l-.11.332a.062.062 0 01-.119 0l-.11-.332a.496.496 0 00-.315-.315l-.331-.11a.062.062 0 010-.118l.332-.11a.496.496 0 00.314-.315l.11-.332z"
    fill="currentColor" />
</svg>