<svg viewBox="0 0 11.642 12.968" xmlns="http://www.w3.org/2000/svg">
  <path
    d="M5.822 0a.265.265 0 00-.232.138L2.15 6.223a.265.265 0 00-.001.256l3.44 6.35a.265.265 0 10.465-.252l-3.37-6.221L6.05.398A.265.265 0 005.822 0zm2.104.004a.265.265 0 00-.219.134l-3.44 6.085a.265.265 0 00-.002.256l3.44 6.35a.265.265 0 00.465 0l3.44-6.35a.265.265 0 00-.002-.256L8.168.137a.265.265 0 00-.242-.133zm-4.191 0a.265.265 0 00-.26.134l-.196.345a.265.265 0 10.46.26l.196-.345a.264.264 0 00-.1-.36.264.264 0 00-.1-.033zm4.202.802l3.138 5.55-3.138 5.792L4.8 6.356zm-4.886.407a.265.265 0 00-.26.133l-.366.648a.265.265 0 00.46.26l.367-.647a.265.265 0 00-.2-.394zm-.853 1.511a.265.265 0 00-.26.133l-.366.647a.265.265 0 00.46.26l.366-.647a.265.265 0 00-.1-.36.265.265 0 00-.1-.032zm-.854 1.51a.264.264 0 00-.26.133l-.366.647a.265.265 0 00.46.262l.366-.648a.265.265 0 00-.2-.393zM.491 5.745a.265.265 0 00-.262.132l-.194.346a.265.265 0 00-.003.256l.189.35a.264.264 0 00.358.106.264.264 0 00.107-.358l-.12-.221.124-.218a.265.265 0 00-.2-.393zm.427 1.598a.265.265 0 00-.207.39l.367.678a.265.265 0 00.466-.252l-.368-.678a.265.265 0 00-.258-.138zm.857 1.582a.264.264 0 00-.207.39l.367.678a.265.265 0 00.465-.252l-.366-.678a.265.265 0 00-.259-.138zm.857 1.583a.264.264 0 00-.207.39l.368.678a.265.265 0 00.465-.252l-.367-.678a.265.265 0 00-.259-.138zm.858 1.583a.265.265 0 00-.208.39l.19.348a.265.265 0 00.465-.252l-.19-.349a.264.264 0 00-.257-.137z" />
</svg>