<svg viewBox="0 0 5.235 3.155" xmlns="http://www.w3.org/2000/svg">
  <path
    d="M1.034 1.086a1.034 1.034 0 000 2.069h1.241a1.034 1.034 0 000-2.069zm1.241 1.862a.827.827 0 110-1.655.827.827 0 010 1.655z"
    fill="currentColor" />
  <path
    d="M4.687 0a.437.437 0 00-.31.134.429.429 0 00-.131.353.515.515 0 00.084.225l-.44.441-.056-.056a.096.096 0 00-.046-.027.08.08 0 00-.049.006c-.027.013-.045.034-.065.054l-.04.041c-.02.02-.041.038-.054.066a.088.088 0 00-.008.047c.002.018.014.033.027.046l.056.056-.044.045v.001a.137.137 0 000 .192c.053.053.14.053.193 0l.718-.718a.495.495 0 00.27.086A.434.434 0 005.1.858a.43.43 0 00.132-.354.56.56 0 00-.171-.331A.539.539 0 004.687 0zm0 .067c.113 0 .23.053.33.152.087.088.14.193.15.293a.36.36 0 01-.112.3.365.365 0 01-.262.114.476.476 0 01-.33-.153.496.496 0 01-.15-.293.36.36 0 01.111-.299.367.367 0 01.263-.114zm.011.123a.259.259 0 00-.184.081.257.257 0 00-.08.21.356.356 0 00.109.21c.07.07.153.11.236.11a.258.258 0 00.184-.08.258.258 0 00.08-.21.358.358 0 00-.11-.21.34.34 0 00-.235-.11zm0 .067c.061 0 .13.03.19.09a.291.291 0 01.089.17.188.188 0 01-.06.157.187.187 0 01-.138.061.276.276 0 01-.188-.091.292.292 0 01-.09-.17.186.186 0 01.06-.156.188.188 0 01.137-.061zm-.33.51a.558.558 0 00.1.1l-.711.71a.07.07 0 01-.099 0 .07.07 0 010-.1zm-.597.369h.002c.001 0 .005.001.011.008l.056.056-.14.14-.055-.057c-.006-.006-.008-.01-.008-.012l.002-.006a.306.306 0 01.04-.047l.04-.04a.261.261 0 01.046-.041l.005-.001z" />
</svg>