<svg viewBox="0 0 17.992 12.7" xmlns="http://www.w3.org/2000/svg">
  <path
    d="M1.323 0C.595 0 0 .595 0 1.323v10.054c0 .728.595 1.323 1.323 1.323h15.346c.727 0 1.323-.595 1.323-1.323V1.323C17.992.595 17.396 0 16.669 0zm0 .53h15.346a.79.79 0 01.794.793v10.054a.79.79 0 01-.794.794H1.323a.79.79 0 01-.794-.794V1.323a.79.79 0 01.794-.794zm6.35 1.322a.265.265 0 100 .53c.309 0 .561.147.755.394.148.189.25.435.291.691-.721.13-1.279.748-1.307 1.5a.265.265 0 00.26.325.265.265 0 00.268-.289A1.051 1.051 0 019.1 3.974c.545.052.954.548.954 1.11v.34c0 .758.277 1.454.736 1.988.691.803.638 1.999-.192 2.631a2.63 2.63 0 01-1.602.54 2.632 2.632 0 01-1.602-.54 1.68 1.68 0 01-.664-1.267.265.265 0 00-.267-.287.265.265 0 00-.26.33c.04.624.327 1.232.87 1.646a3.164 3.164 0 001.923.647c.721 0 1.389-.241 1.922-.648 1.078-.82 1.146-2.383.274-3.398a2.504 2.504 0 01-.609-1.642v-.34c0-.575-.296-1.109-.76-1.404.535-.05.94-.176 1.243-.388.4-.28.576-.72.576-1.175v-.265h-.265c-.551 0-1.114.063-1.573.292-.31.155-.565.41-.701.746a1.947 1.947 0 00-.259-.44c-.273-.35-.686-.598-1.171-.598zm3.388.554a.74.74 0 01-.3.453c-.212.15-.617.246-1.16.283a.824.824 0 01.44-.524c.261-.13.631-.188 1.02-.212zM7.608 5.762l-.213.106-.04.233.16.174.093.016.211-.106.043-.233-.163-.174zm-.39.92l-.211.106-.042.234.162.173.092.016.212-.106.041-.234-.161-.173-.092-.016zm-.558.83l-.212.107-.042.233.163.173.091.016.213-.106.04-.233-.16-.173z" />
</svg>