<svg viewBox="0 0 10.081 12.152" xmlns="http://www.w3.org/2000/svg">
    <path
        d="M3.996 0c-1.516 0-2.79 1.028-2.79 2.35 0 .736.411 1.378 1.02 1.803-.004.03.001.023-.014.078a1.63 1.63 0 01-.265.523l-.287.39.484.001a1.657 1.657 0 001.234-.513c.2.038.405.07.618.07.437 0 .853-.088 1.226-.242.41.26.915.413 1.46.413.18 0 .35-.027.52-.059.127.13.466.442 1.07.44l.484-.003-.286-.39a1.369 1.369 0 01-.222-.437c-.014-.048-.01-.042-.013-.066.514-.371.879-.907.879-1.539C9.114 1.66 8 .765 6.682.765c-.194 0-.384.02-.566.057C5.6.316 4.835 0 3.996 0zm0 .492c1.295 0 2.298.857 2.298 1.859S5.291 4.21 3.996 4.21c-.222 0-.435-.025-.637-.072l-.147-.035-.097.116s-.2.226-.533.351c.025-.064.088-.152.103-.206.05-.179.053-.315.053-.315V3.91L2.62 3.84c-.571-.347-.923-.887-.923-1.488C1.697 1.349 2.7.492 3.996.492zm2.687.765c1.097 0 1.939.724 1.939 1.562 0 .503-.293.955-.776 1.248l-.118.072v.138s.002.123.046.28c.004.017.026.045.032.063a2.275 2.275 0 01-.34-.219l-.098-.115-.147.034c-.17.04-.351.061-.538.061a2.287 2.287 0 01-.936-.2c.63-.427 1.04-1.08 1.04-1.83 0-.394-.116-.76-.314-1.083.069-.006.138-.011.21-.011zM5.3 5.802c-.573 0-1.038.144-1.365.417a1.343 1.343 0 00-.24.264c-.01-.009-.016-.02-.026-.029a.998.998 0 00-.527-.225l-.079-.133a.265.265 0 00-.227-.13c-.51 0-.928.128-1.223.375a1.283 1.283 0 00-.448.997c0 .152.035.302.066.43.014.056.016.061.027.1a.667.667 0 00-.093.344c0 .19.052.358.166.471.046.047.096.037.148.06.032.12.061.245.115.345.038.072.079.136.123.193.008.01.024.018.031.028v.338c-.029.06-.086.122-.22.193-.145.077-.348.152-.56.25-.213.099-.44.223-.626.423-.187.2-.32.481-.342.83a.265.265 0 00.265.28h1.888c-.017.08-.03.162-.036.249a.265.265 0 00.264.28h5.557a.265.265 0 00.264-.28 1.457 1.457 0 00-.038-.249h1.652a.265.265 0 00.264-.28 1.318 1.318 0 00-.34-.83 1.927 1.927 0 00-.627-.423c-.212-.098-.415-.173-.56-.25-.134-.071-.192-.133-.22-.193V9.31c.008-.01.023-.019.031-.029.044-.057.085-.121.123-.193.053-.1.083-.225.114-.346.053-.022.103-.012.15-.059.113-.113.164-.281.164-.471a.665.665 0 00-.092-.343l.027-.1c.031-.13.065-.279.065-.43 0-.387-.152-.75-.447-.998-.295-.247-.712-.375-1.223-.375a.265.265 0 00-.227.13l-.08.133a1 1 0 00-.527.225c-.018.017-.032.035-.048.053l-.007-.012c-.156-.208-.418-.342-.724-.388l-.104-.175a.265.265 0 00-.227-.13zm-.14.548l.07.116a.265.265 0 00.227.13c.248 0 .377.086.476.217a.883.883 0 01.152.51c0 .066-.027.228-.059.356a4.638 4.638 0 01-.061.228.265.265 0 00.1.293c.002.005.02.03.02.116 0 .121-.026.14-.021.135.005-.004.01-.003-.012-.003a.265.265 0 00-.263.236c-.01.1-.062.246-.123.36a1.033 1.033 0 01-.088.139c-.025.032-.055.045-.012.023a.265.265 0 00-.142.234v.596a.265.265 0 00.017.094c.105.275.345.426.586.539.24.113.508.197.755.297.247.1.472.215.626.36.09.084.152.183.198.297H2.758c.041-.101.055-.235.125-.31.132-.142.32-.253.534-.352.213-.099.447-.183.663-.298.216-.115.434-.272.533-.533a.265.265 0 00.017-.094V9.44a.265.265 0 00-.142-.234c.043.022.013.009-.012-.023a1.033 1.033 0 01-.087-.139 1.136 1.136 0 01-.124-.36.265.265 0 00-.263-.236c-.022 0-.016-.001-.011.003.004.005-.022-.014-.022-.135 0-.087.018-.11.021-.116a.265.265 0 00.1-.293s-.031-.1-.062-.228a2.07 2.07 0 01-.059-.355c0-.06.007-.113.014-.166a.265.265 0 00.012-.068.813.813 0 01.28-.465c.183-.153.486-.251.886-.275zm-2.464.164l.05.085a.265.265 0 00.228.13c.166 0 .262.046.338.116.066.06.114.151.145.253a1.582 1.582 0 00-.018.226c0 .166.039.335.074.48.016.066.02.073.032.119a.731.731 0 00-.106.393c0 .21.057.39.177.51.054.053.112.044.173.068.035.14.07.284.133.4.042.08.088.151.136.214.011.014.032.025.043.038v.41c-.037.08-.111.156-.27.24-.167.089-.397.174-.637.285-.24.111-.493.25-.7.472-.04.043-.074.092-.11.141H.642c.033-.067.04-.167.088-.22.113-.12.275-.217.46-.303.187-.086.393-.161.587-.264.193-.102.392-.245.484-.486a.265.265 0 00.018-.094v-.524a.265.265 0 00-.143-.235c.047.024.021.015 0-.011a.892.892 0 01-.074-.119.981.981 0 01-.106-.305.265.265 0 00-.252-.236c.004.006-.009.005-.009-.085 0-.069.014-.082.014-.082a.265.265 0 00.091-.287s-.026-.088-.053-.2a1.856 1.856 0 01-.052-.305c0-.255.084-.445.26-.591.151-.127.406-.21.742-.233zm4.688 0c.337.023.592.106.744.233.174.146.258.336.258.591 0 .052-.024.194-.05.306-.028.111-.055.199-.055.199a.265.265 0 00.092.287s.013.013.013.082c0 .09-.013.09-.01.085a.265.265 0 00-.251.236.982.982 0 01-.105.306.879.879 0 01-.074.118c-.021.026-.047.035 0 .01a.265.265 0 00-.143.236v.524a.265.265 0 00.018.094c.091.24.29.384.484.486.193.103.4.178.586.264.186.086.348.182.46.303.05.053.056.153.089.22H7.907a1.39 1.39 0 00-.138-.154c-.234-.22-.517-.355-.789-.465-.271-.11-.536-.195-.728-.285-.182-.086-.266-.166-.3-.235v-.409c.012-.013.033-.024.044-.038.048-.063.093-.135.136-.215.062-.115.098-.259.133-.4.06-.023.119-.014.173-.068.12-.12.176-.3.176-.51a.73.73 0 00-.105-.392c.012-.046.016-.053.032-.12.035-.144.073-.313.073-.48 0-.055-.005-.112-.011-.169a.265.265 0 00.004-.014.583.583 0 01.161-.295c.076-.07.172-.117.337-.117a.265.265 0 00.228-.129l.051-.085z" />
</svg>