<svg viewBox="0 0 10.054 12.171" xmlns="http://www.w3.org/2000/svg">
    <path
        d="M5.027 0C1.667 0 .37 2.17.265 4.233v1.77C.079 6.215 0 6.485 0 6.83c0 .608.394 1.107.976 1.24.688 1.799 1.83 4.1 3.787 4.1 1.058 0 1.879-.688 2.513-1.587H6.59c-.582.715-1.19 1.059-1.852 1.059-1.27 0-2.36-1.274-3.365-3.92l-.05-.156-.157-.025c-.344 0-.637-.315-.637-.712 0-.154.03-.285.075-.388l.868.413a.264.264 0 00.38-.24V4.722c.183-.012.665-.03 1.463-.223.84-.202 1.81-.562 2.481-1.207a4.12 4.12 0 001.877 1.38v1.944a.264.264 0 00.123.225c.077.05.175.055.257.014l.414-.206v.876a.645.645 0 01-.133.017l-.157.025-.057.156c-.265.689-.53 1.276-.794 1.778.317-.052.615-.184.826-.421.16-.345.29-.692.422-1.01a1.04 1.04 0 00.157-.057v.19c0 .892-.695 1.588-1.587 1.588H6.036a.796.796 0 00-.744-.53h-.53a.798.798 0 00-.793.794c0 .435.358.794.793.794h.53a.797.797 0 00.744-.53h1.108A2.113 2.113 0 009.26 8.203v-.264a.798.798 0 00.794-.794V6.086a.798.798 0 00-.794-.794V4.233C9.155 1.905 7.86.583 5.664.53L5.134 0zM4.92.53l.529.528h.107c2.646 0 3.122 1.985 3.175 3.175v1.059h-.025a.264.264 0 00-.24.264v.496l-.264.133V4.498a.264.264 0 00-.19-.256S6.693 3.827 6.044 2.77a.267.267 0 00-.248-.124.264.264 0 00-.182.099c-.527.632-1.53 1.028-2.414 1.24-.884.212-1.63.248-1.63.248a.265.265 0 00-.247.265v1.695l-.554-.265V4.233C.929 1.561 2.988.556 4.919.53zm4.076 5.29h.264c.147 0 .265.119.265.265v1.059a.264.264 0 01-.265.264h-.215a.276.276 0 00-.05-.008V6.251a.277.277 0 000-.083zM4.763 9.79h.529c.147 0 .264.117.264.264a.264.264 0 01-.264.265h-.53a.264.264 0 01-.264-.265c0-.147.118-.264.265-.264z" />
</svg>