<svg viewBox="0 0 6.67 6.14" xmlns="http://www.w3.org/2000/svg">
  <g fill="currentColor">
    <path
      d="M2.241 2.255a.265.265 0 00-.249 0l-1.587.847a.265.265 0 00-.14.233v.216l1.52.913.332-.198.33.198 1.522-.913v-.216a.265.265 0 00-.14-.233zM3.969 3.86l-1.264.759 1.264.758zm-.01 1.82L2.117 4.574.274 5.68a.265.265 0 00.255.195h3.175a.265.265 0 00.255-.195zM.265 5.377l1.264-.759L.265 3.86v1.517zm1.603-3.355a.53.53 0 01.498 0l1.587.846a.53.53 0 01.28.467v2.276a.53.53 0 01-.529.529H.53A.53.53 0 010 5.61V3.336a.53.53 0 01.28-.467zM5.574 1.281a.074.074 0 01.14 0l.133.398a.593.593 0 00.375.375l.397.132a.074.074 0 010 .14l-.397.133a.593.593 0 00-.375.375l-.133.398a.074.074 0 01-.14 0l-.133-.398a.593.593 0 00-.375-.375l-.397-.132a.074.074 0 010-.14l.397-.133a.593.593 0 00.375-.375zM4.78.235a.045.045 0 01.085 0l.079.239c.035.106.119.19.225.225l.238.08a.045.045 0 010 .084L5.17.942a.356.356 0 00-.225.225l-.08.238a.045.045 0 01-.084 0l-.08-.238a.356.356 0 00-.224-.225l-.239-.08a.045.045 0 010-.084l.239-.08a.356.356 0 00.225-.224zM6.231.02a.03.03 0 01.057 0l.052.159c.024.07.08.126.15.15l.16.053a.03.03 0 010 .056l-.16.053a.237.237 0 00-.15.15L6.288.8a.03.03 0 01-.057 0L6.178.641a.237.237 0 00-.15-.15L5.87.438a.03.03 0 010-.056l.158-.053a.237.237 0 00.15-.15L6.232.02z" />
  </g>
</svg>