<svg viewBox="0 0 46.878814 37.448833" xmlns="http://www.w3.org/2000/svg">
    <path
        d="M8.542 13.016L0 21.558v13.176h28.505V13.016zm.96 1.357h17.646v19.004H1.358v-10.86h8.144zm-1.358.96v5.827H2.317zm22.386.388a.679.679 0 00-.667.688v19.682H3.393a.679.679 0 100 1.358H31.22v-21.04a.679.679 0 00-.69-.688z" />
    <g fill="currentColor">
        <path
            d="M40.004 12.89a6.015 6.015 0 110-12.03 6.015 6.015 0 010 12.03zm0 .86a6.875 6.875 0 100-13.75 6.875 6.875 0 000 13.75z" />
        <path
            d="M40.004 3.437a.43.43 0 01.43.43v2.578h2.578a.43.43 0 010 .86h-2.578v2.577a.43.43 0 01-.86 0V7.304h-2.577a.43.43 0 010-.859h2.578V3.867a.43.43 0 01.43-.43z" />
    </g>
</svg>