<svg viewBox="0 0 50.107 44.465" xmlns="http://www.w3.org/2000/svg">
    <path
        d="M34.314.016a7.57 7.57 0 00-2.969.781l-5.5 2.688H10.22L1.345 1.328a1.02 1.02 0 00-.406-.03.996.996 0 00-.875.945.998.998 0 00.781 1.023l9 2.188.125.03h11.781l-8.5 4.157c-.035.016-.058.047-.094.063-1.32.582-1.667 2.386-.687 3.437l-.03.031c.014.016.046.016.061.032 2.977 3.261 7.692 4.343 11.844 2.718h.031l5.875-2.28 12.125 12.155a2.299 2.299 0 010 3.282 2.299 2.299 0 01-3.28 0 1.004 1.004 0 00-1.337.07c-.36.363-.39.937-.07 1.336a2.336 2.336 0 010 3.312 2.299 2.299 0 01-3.282 0l-.718-.718a1.004 1.004 0 00-1.336.07c-.36.363-.39.937-.07 1.336a2.336 2.336 0 010 3.312 2.299 2.299 0 01-3.282 0l-.687-.718a1.006 1.006 0 00-1.438 1.406 2.336 2.336 0 010 3.312 2.299 2.299 0 01-3.28 0l-1.25-1.25.75-.75a3.76 3.76 0 000-5.312 3.746 3.746 0 00-2.657-1.094h-.032a3.746 3.746 0 00-1.093-2.719 3.746 3.746 0 00-2.657-1.093c-.05 0-.105-.004-.156 0a3.747 3.747 0 00-1.093-2.782 3.78 3.78 0 00-2.657-1.125c-.05 0-.105-.004-.156 0a3.747 3.747 0 00-1.094-2.78 3.746 3.746 0 00-2.656-1.095c-.96 0-1.926.364-2.656 1.094l-.907.906-4.03-.687a1.004 1.004 0 00-1.25.906c-.036.55.386 1.027.937 1.063l3.281.593c-.297 1.23.012 2.574.97 3.532A3.74 3.74 0 008 30.297a3.74 3.74 0 001.094 2.814 3.74 3.74 0 002.813 1.093 3.747 3.747 0 001.093 2.782 3.746 3.746 0 002.72 1.093c-.024.99.327 1.985 1.062 2.72l.03.03c1.044 1.02 2.544 1.29 3.845.844l1.53 1.532c1.68 1.68 4.446 1.68 6.126 0 .816-.817 1.195-1.895 1.218-2.97 1.446.384 3.032.094 4.157-1.03a4.317 4.317 0 001.25-2.97c1.441.38 3.031.094 4.156-1.03.96-.96 1.324-2.27 1.188-3.532 1.261.14 2.57-.226 3.53-1.187a4.31 4.31 0 001.157-3.969l.594-.594 3.687-.53c.551-.087.93-.606.844-1.157a1.014 1.014 0 00-1.156-.844l-4 .625-.313.031-.593.594c-.07-.082-.14-.172-.22-.25l-12.31-12.314a.954.954 0 00-.157-.125l-.03-.03a1.004 1.004 0 00-1.189-.376l-6.5 2.5c-3.418 1.352-7.265.473-9.687-2.218l-.03-.032c-.13-.129-.138-.219.03-.28h.062l.031-.032 12.344-6.03c.211-.033.41-.13.563-.283l5.281-2.594h.031c1.844-.92 3.996-.734 5.688.407l.375.437.093.125.126.063c1.815 1.25 4.001 1.581 6.061 1.031v.031l.063-.03 4.656-.97a1.01 1.01 0 00-.438-1.968l-4.687 1-.032.03h-.03c-1.493.415-3.032.141-4.376-.75l-.375-.437-.093-.093-.126-.094A7.591 7.591 0 0035.345.016a8.258 8.258 0 00-1.03 0zM8.845 23.736c.438 0 .883.194 1.25.561.734.735.734 1.766 0 2.5l-.78.75-.095.094-.125.156c-.734.735-1.766.735-2.5 0-.602-.6-.69-1.39-.313-2.062.176-.125.305-.297.375-.5l.813-.782.125-.156c.367-.367.813-.562 1.25-.562zm3.906 3.905c.438 0 .883.195 1.25.563.735.734.735 1.734 0 2.468l-1 1c-.734.735-1.765.735-2.5 0-.734-.734-.734-1.734 0-2.468l1-1c.367-.368.813-.563 1.25-.563zm3.906 3.906c.438 0 .852.196 1.22.563.605.605.706 1.394.312 2.062-.137.102-.282.188-.407.313l-1 1v.031h-.03c-.11.121-.192.246-.282.375-.668.395-1.457.293-2.063-.313-.734-.734-.734-1.734 0-2.468l.75-.782.188-.156.063-.062c.367-.367.812-.563 1.25-.563zm3.782 3.813c.437 0 .883.164 1.25.531.734.734.734 1.766 0 2.5l-1 1c-.086.086-.157.184-.25.25-.008.004-.024-.004-.032 0-.699.484-1.574.395-2.218-.25-.473-.473-.582-1.418-.25-2.125.125-.098.261-.168.375-.28l1-1c.133-.134.234-.29.343-.439.25-.125.52-.187.782-.187z" />
</svg>