<svg viewBox="0 0 46 44" xmlns="http://www.w3.org/2000/svg">
    <path
        d="M13 0c-1.645 0-3 1.355-3 3s1.355 3 3 3c.195 0 .385-.02.57-.057l4.547 8.528a1 1 0 101.766-.942l-4.596-8.617A2.968 2.968 0 0016 3c0-1.645-1.355-3-3-3zm20 0c-1.645 0-3 1.355-3 3 0 .728.275 1.39.713 1.912l-4.596 8.617a1 1 0 101.766.942l4.547-8.528c.185.037.375.057.57.057 1.645 0 3-1.355 3-3s-1.355-3-3-3zM13 2c.564 0 1 .436 1 1 0 .564-.436 1-1 1-.564 0-1-.436-1-1 0-.564.436-1 1-1zm20 0c.564 0 1 .436 1 1 0 .564-.436 1-1 1-.564 0-1-.436-1-1 0-.564.436-1 1-1zm-9.092 15c-2.446 0-4.41.617-5.789 1.777-1.378 1.16-2.096 2.848-2.13 4.674-.018.896.172 1.85.41 2.81a2.263 2.263 0 00-.376 1.561c.085.759.275 1.33.596 1.77.115.158.304.16.451.271.133.871.496 1.66.924 2.315.257.394.525.741.768 1.02.078.088.176.143.24.216v1.756c-.13.315-.443.638-1.092.994-.681.374-1.616.74-2.586 1.205-.97.465-1.988 1.037-2.814 1.926-.827.888-1.422 2.115-1.508 3.648a1 1 0 001 1.057h22A1 1 0 0035 42.943c-.086-1.533-.683-2.76-1.51-3.648-.826-.889-1.843-1.46-2.812-1.926-.97-.465-1.907-.83-2.588-1.205-.649-.356-.96-.677-1.09-.992v-1.774c.065-.077.172-.139.252-.234.242-.288.507-.644.762-1.045.423-.665.784-1.44.918-2.295.148-.112.335-.113.45-.271.322-.44.512-1.011.597-1.77.053-.483.005-.925-.153-1.316-.035-.088-.169-.128-.217-.213.191-.732.363-1.478.38-2.233.03-1.41-.367-2.816-1.311-3.884-.8-.906-2.047-1.419-3.5-1.584l-.33-.899a1 1 0 00-.94-.654zM3 19c-1.645 0-3 1.355-3 3s1.355 3 3 3c1.293 0 2.395-.843 2.813-2H13a1 1 0 100-2H5.812C5.396 19.843 4.293 19 3 19zm40 0c-1.293 0-2.395.843-2.813 2H33a1 1 0 100 2h7.188c.417 1.157 1.519 2 2.812 2 1.645 0 3-1.355 3-3s-1.355-3-3-3zm-19.756.09l.246.668a1 1 0 00.938.654c1.373 0 2.202.43 2.752 1.05.55.622.83 1.51.808 2.517a8.066 8.066 0 01-.375 2.193 1 1 0 00.364 1.103c.011.044.032.115.013.286-.056.51-.173.725-.215.787a1 1 0 00-.734.963c0 .276-.303 1.087-.715 1.734-.206.323-.427.62-.605.832-.179.212-.44.381-.211.252A1 1 0 0025 33v2.447a1 1 0 00.002.041c-.065.04-.102.069-.2.117-.38.19-.969.395-1.802.395-.833 0-1.422-.204-1.803-.395-.095-.047-.131-.076-.195-.115a1 1 0 000-.043V33a1 1 0 00-.514-.873c.2.111-.044-.044-.22-.246a7.401 7.401 0 01-.598-.795c-.406-.622-.707-1.396-.707-1.736a1 1 0 00-.734-.963c-.043-.062-.16-.278-.217-.787-.02-.177.024-.274.049-.31a1 1 0 00.002-.003 1 1 0 00.332-1.055c-.289-.994-.422-1.924-.407-2.742.026-1.353.49-2.4 1.418-3.181.813-.685 2.125-1.109 3.838-1.22zM3 21c.544 0 .958.409.988.943a1 1 0 000 .116A.978.978 0 013 23c-.564 0-1-.436-1-1 0-.564.436-1 1-1zm40 0c.564 0 1 .436 1 1 0 .564-.436 1-1 1a.978.978 0 01-.988-.943 1 1 0 000-.116A.978.978 0 0143 21zM19.951 37.176c.12.075.204.145.352.219.619.31 1.53.605 2.697.605s2.078-.296 2.697-.605c.148-.074.232-.144.352-.22.333.29.7.536 1.078.743.861.473 1.81.834 2.686 1.254.874.42 1.661.891 2.214 1.486.344.37.575.82.744 1.342h-19.54c.169-.521.4-.973.744-1.342.553-.594 1.34-1.066 2.214-1.486.875-.42 1.823-.78 2.684-1.254a6.222 6.222 0 001.078-.742z" />
</svg>