<svg viewBox="0 0 5.655 5.853" xmlns="http://www.w3.org/2000/svg">
  <path fill-rule="evenodd"
    d="M4.185 1.65a.132.132 0 01.048.102v3.704a.132.132 0 01-.106.13l-1.323.264a.133.133 0 01-.052 0l-1.297-.26-1.297.26A.132.132 0 010 5.72V2.016a.132.132 0 01.106-.13l1.323-.264a.132.132 0 01.052 0l1.297.26 1.297-.26a.132.132 0 01.11.027zm-1.54.475l-1.058-.212v3.434l1.059.212zm.265 3.434l1.059-.212V1.913l-1.059.212zm-1.587-.212V1.913l-1.058.212v3.434z"
    fill="currentColor" />
  <path
    d="M4.823.007a.174.174 0 00-.215.117.17.17 0 00.02.14l-.43.41-.24-.224a.173.173 0 00.03-.058.174.174 0 00-.117-.215.174.174 0 00-.215.117.174.174 0 00.114.215l-.033.58-.072.246a.043.043 0 00.03.053l1.327.392a.043.043 0 00.054-.03l.072-.245L5.435 1a.174.174 0 00.213-.118.174.174 0 00-.117-.214.174.174 0 00-.215.117.17.17 0 00-.006.058l-.326.06-.139-.573A.172.172 0 004.94.222a.174.174 0 00-.117-.215zM4.799.09a.086.086 0 01.058.107.085.085 0 01-.053.057.029.029 0 00-.005-.002.043.043 0 00-.032.008.086.086 0 01-.017-.004.074.074 0 01-.026-.012.02.02 0 00-.002-.002L4.72.24H4.72L4.719.236a.036.036 0 00-.007-.006.085.085 0 01-.02-.083.086.086 0 01.107-.059zM4.69.325a.156.156 0 00.07.02l.147.616a.043.043 0 00.05.033l.38-.069c.007.01.014.02.023.03l-.273.483-1.263-.372.032-.555a.168.168 0 00.03-.01l.281.264a.043.043 0 00.061 0zM3.846.26a.086.086 0 01.059.108.087.087 0 01-.025.04V.406a.043.043 0 00-.018.012V.42a.084.084 0 01-.034.01h-.001A.045.045 0 003.81.43h-.004L3.798.428A.086.086 0 013.739.32a.086.086 0 01.108-.058zm1.66.49a.086.086 0 01.059.107.086.086 0 01-.12.053.042.042 0 00-.011-.006.085.085 0 01-.03-.034.043.043 0 00-.006-.017A.087.087 0 015.4.808.086.086 0 015.506.75zM3.81 1.15l1.245.367-.049.166-1.245-.366z" />
</svg>