<svg viewBox="0 0 45.987 42.009" xmlns="http://www.w3.org/2000/svg">
    <path
        d="M27.79 0a.995.995 0 00-.918.704c-.125.406.02.847.36 1.101a31.208 31.208 0 016.007 6.02 1 1 0 101.594-1.207A33.203 33.203 0 0028.443.21a.999.999 0 00-.653-.21zm-7.152 1.063a1.01 1.01 0 00-.992.742c-.118.45.082.918.488 1.14a31.133 31.133 0 0111.14 10.602c.293.47.91.614 1.38.32.464-.296.609-.913.312-1.382A33.121 33.121 0 0021.114 1.2a1.02 1.02 0 00-.476-.137zm-8.145 1.945c-.898 0-1.797.34-2.472 1.016a3.423 3.423 0 00-.793 1.266l-.262-.266a3.489 3.489 0 00-2.473-1.016 3.488 3.488 0 00-2.476 1.016c-1.121 1.125-1.301 2.836-.57 4.164a3.375 3.375 0 00-1.43.84 3.515 3.515 0 000 4.945l.27.27c-.462.156-.895.41-1.27.785a3.515 3.515 0 000 4.945l.875.875L18.36 38.321c3.508 3.508 9.223 3.508 12.727 0l4.223-4.223a9.94 9.94 0 002.304-3.586l2.63-7.078a8.034 8.034 0 011.843-2.87l1.734-1.731 1-1a4.017 4.017 0 000-5.66c-1.554-1.551-4.105-1.551-5.656 0l-1 1-.707.71-4.2 4.196a2.98 2.98 0 01-4.237 0L15.903 4.965l-.937-.941a3.489 3.489 0 00-2.473-1.016zm0 1.985c.383.004.762.152 1.063.449l.937.934c-.004.003-.004.003 0 .003l13.11 13.11a5.017 5.017 0 007.074 0l4.191-4.192.711-.707 1-1a1.978 1.978 0 012.828 0c.79.79.79 2.036 0 2.829l-2.734 2.734a10.028 10.028 0 00-2.305 3.582l-2.629 7.078a8.024 8.024 0 01-1.84 2.871c-.003 0-.003 0 0 0l-4.222 4.223a6.988 6.988 0 01-9.903 0L2.431 19.563a1.494 1.494 0 010-2.125c.59-.586 1.453-.547 2.078.078a.63.63 0 00.11.094l8.187 8.375c.25.262.62.367.972.281a1.005 1.005 0 00.46-1.684l-9.518-9.726c-.004-.004-.004-.008-.008-.008l-1.277-1.285H3.43a1.494 1.494 0 010-2.125c.593-.594 1.476-.574 2.086.035l9.175 9.172a1 1 0 00.973.277c.348-.09.625-.367.715-.714a1 1 0 00-.277-.973l-9.11-9.113c-.02-.02-.039-.043-.062-.059l-1.5-1.5a1.49 1.49 0 010-2.125 1.494 1.494 0 012.125 0L18.79 17.672a1 1 0 00.973.278c.347-.09.625-.367.715-.715a1 1 0 00-.278-.973l-8.699-8.699c-.02-.023-.035-.043-.055-.062-.613-.61-.617-1.457-.015-2.063.297-.293.68-.445 1.062-.445zM2.228 27.989a1.002 1.002 0 00-.82 1.512 33.166 33.166 0 0012.585 12.37 1.005 1.005 0 001.512-.886 1.001 1.001 0 00-.54-.863A31.16 31.16 0 013.143 28.5a1.011 1.011 0 00-.914-.512z" />
</svg>