<svg viewBox="0 0 25.4 20.108" xmlns="http://www.w3.org/2000/svg">
    <path
        d="M12.7 0a2.123 2.123 0 00-2.117 2.117c0 .626.29 1.182.728 1.57L7.673 9.989 4.085 8.186c.095-.24.148-.505.148-.778a2.123 2.123 0 00-2.116-2.116A2.123 2.123 0 000 7.408C0 8.56.937 9.506 2.084 9.525l1.62 6.929v3.125c0 .291.238.53.53.53h16.933a.53.53 0 00.529-.53v-3.125l1.62-6.929A2.126 2.126 0 0025.4 7.408a2.123 2.123 0 00-2.117-2.116 2.123 2.123 0 00-2.116 2.116c0 .249.052.49.132.712l-3.622 1.818-3.604-6.234c.447-.388.744-.952.744-1.587A2.123 2.123 0 0012.7 0zm0 1.058a1.05 1.05 0 011.058 1.059c0 .351-.171.65-.43.843a.353.353 0 00-.066 0 .53.53 0 00-.347.199 1.054 1.054 0 01-.215.016c-.122 0-.24-.012-.347-.05a.247.247 0 00-.033-.016c-.006-.002-.011-.014-.017-.017h-.016c-.006-.002-.01-.014-.017-.016a.446.446 0 00-.1-.05 1.041 1.041 0 01-.528-.91A1.05 1.05 0 0112.7 1.059zm-.447 3.126c.143.03.296.05.447.05.144 0 .294-.022.43-.05L17 10.898a.53.53 0 00.694.215l4.217-2.117c.118.1.242.19.38.264l-1.538 6.615H4.646L3.11 9.26a2.058 2.058 0 00.314-.214l4.217 2.116a.53.53 0 00.71-.215zM2.117 6.35a1.05 1.05 0 011.058 1.058 1.058 1.058 0 01-.149.546c-.002.002-.014-.002-.017 0a.53.53 0 00-.165.198v.017a1.032 1.032 0 01-.364.231c-.004.002-.012-.002-.016 0a.55.55 0 00-.199.05H2.25c-.01.002-.021.014-.033.017-.033.002-.067 0-.1 0a1.05 1.05 0 01-1.058-1.059A1.05 1.05 0 012.117 6.35zm21.166 0a1.05 1.05 0 011.059 1.058 1.05 1.05 0 01-1.224 1.042.519.519 0 00-.148-.033 1.037 1.037 0 01-.464-.297.53.53 0 00-.132-.182 1.065 1.065 0 01-.149-.53 1.05 1.05 0 011.058-1.058zM4.763 16.933h15.875v2.117H4.763z" />
</svg>