<svg viewBox="0 0 84.411 116.691" xmlns="http://www.w3.org/2000/svg">
  <g fill="currentColor">
    <path
      d="M40.852 40.094a5.106 5.106 0 015.106 5.107v61.277a5.106 5.106 0 01-5.106 5.107h-30.64a5.106 5.106 0 01-5.106-5.107V45.201a5.106 5.106 0 015.107-5.107zm-30.64-5.106A10.213 10.213 0 000 45.2v61.277a10.213 10.213 0 0010.213 10.213h30.639a10.213 10.213 0 0010.212-10.213V45.201a10.213 10.213 0 00-10.212-10.213z" />
    <path d="M25.532 106.478a5.106 5.106 0 100-10.213 5.106 5.106 0 000 10.213z" />
    <g>
      <path fill-rule="evenodd"
        d="M48.953 7.886c-1.185 10.9 2.257 19.02 6.407 24.448a30.027 30.027 0 006.418 6.254c.984.696 1.897 1.23 2.672 1.594.714.336 1.481.612 2.113.612.633 0 1.398-.276 2.114-.612a18.253 18.253 0 002.672-1.594 28.862 28.862 0 004.418-3.888l-1.899-1.9a26.184 26.184 0 01-4.023 3.55c-.882.622-1.663 1.07-2.277 1.359a5.673 5.673 0 01-.747.3 1.402 1.402 0 01-.258.064 1.568 1.568 0 01-.255-.063 5.986 5.986 0 01-.75-.301 15.657 15.657 0 01-2.276-1.36 27.345 27.345 0 01-5.83-5.692c-3.502-4.58-6.495-11.295-6.033-20.306zm7.36-2.838l-2.171-2.172a150.261 150.261 0 014.956-1.45C61.864.677 64.804 0 66.563 0c1.76 0 4.7.676 7.466 1.428 2.83.765 5.683 1.67 7.36 2.218a3.926 3.926 0 012.662 3.218c1.232 9.244-.846 16.55-3.954 21.967l-1.964-1.963c2.657-4.883 4.386-11.394 3.29-19.637a1.224 1.224 0 00-.842-.995 155.572 155.572 0 00-7.23-2.18c-2.83-.767-5.434-1.336-6.788-1.336-1.351 0-3.957.569-6.787 1.336a126.716 126.716 0 00-3.46.995zm24.645 31.55L47.814 3.451l1.805-1.805 33.145 33.145-1.803 1.803z" />
    </g>
  </g>
</svg>