<svg viewBox="0 0 84.411 116.691" xmlns="http://www.w3.org/2000/svg">
  <g fill="currentColor">
    <path
      d="M40.852 40.094a5.106 5.106 0 015.106 5.107v61.277a5.106 5.106 0 01-5.106 5.107h-30.64a5.106 5.106 0 01-5.106-5.107V45.201a5.106 5.106 0 015.107-5.107zm-30.64-5.106A10.213 10.213 0 000 45.2v61.277a10.213 10.213 0 0010.213 10.213h30.639a10.213 10.213 0 0010.212-10.213V45.201a10.213 10.213 0 00-10.212-10.213z" />
    <path d="M25.532 106.478a5.106 5.106 0 100-10.213 5.106 5.106 0 000 10.213z" />
    <g>
      <path
        d="M57.405 6.814a160.288 161.59 0 00-7.401 2.251 1.255 1.265 0 00-.856 1.026C47.703 21.024 51.042 29 55.026 34.256a27.98 28.207 0 005.966 5.872c.903.642 1.701 1.105 2.33 1.402.313.15.569.25.764.31a1.435 1.447 0 00.264.066 1.604 1.617 0 00.26-.065c.199-.06.455-.16.768-.31.626-.298 1.427-.763 2.33-1.403a27.983 28.21 0 005.966-5.872c3.984-5.253 7.323-13.232 5.878-24.165a1.252 1.262 0 00-.856-1.026 158.472 158.472 0 00-7.401-2.248c-2.896-.792-5.56-1.379-6.945-1.379-1.383 0-4.05.587-6.945 1.379zm-.694-2.71c2.83-.775 5.839-1.472 7.639-1.472 1.8 0 4.808.697 7.638 1.473 2.896.789 5.816 1.723 7.532 2.288a4.018 4.05 0 012.724 3.32c1.555 11.774-2.053 20.5-6.431 26.273a30.72 30.969 0 01-6.566 6.452 18.677 18.828 0 01-2.735 1.643c-.73.348-1.515.632-2.162.632s-1.43-.284-2.163-.632a18.674 18.826 0 01-2.734-1.643 30.724 30.974 0 01-6.567-6.452c-4.377-5.773-7.985-14.5-6.43-26.274a4.018 4.05 0 012.723-3.319 162.938 164.261 0 017.532-2.288z" />
      <path
        d="M68.263 19.727a3.913 3.945 0 01-2.609 3.722l1.005 5.234a1.304 1.315 0 01-1.281 1.564h-2.056a1.304 1.315 0 01-1.278-1.564l1.001-5.234a3.913 3.945 0 115.218-3.722z" />
    </g>
  </g>
</svg>