<svg viewBox="0 0 158.033 180.253" xmlns="http://www.w3.org/2000/svg">
  <g fill="currentColor">
    <path
      d="M87.85 155.394a43.536 43.536 0 01-43.536-43.535c0-17.031 6.008-37.319 15.168-53.287 4.562-7.95 9.682-14.437 14.837-18.843 5.207-4.44 9.804-6.234 13.53-6.234 3.727 0 8.325 1.794 13.532 6.234 5.154 4.406 10.274 10.893 14.836 18.843 9.16 15.968 15.168 36.256 15.168 53.287a43.536 43.536 0 01-43.535 43.535zm0 8.708a52.243 52.243 0 0052.242-52.243c0-37.562-26.121-87.071-52.242-87.071-26.122 0-52.243 49.509-52.243 87.071a52.243 52.243 0 0052.243 52.243zM137.983 34.407a1.075 1.075 0 01-1.075-1.075v-2.78l-1.39 1.39a1.076 1.076 0 01-1.52-1.522l2.91-2.91v-2.335l-1.39 1.391a1.076 1.076 0 01-1.52-1.522l2.91-2.91v-3.068l-2.658 1.533-1.065 3.978a1.076 1.076 0 11-2.077-.559l.51-1.897-2.022 1.166-1.067 3.978a1.076 1.076 0 11-2.077-.559l.51-1.896-2.409 1.389a1.075 1.075 0 01-1.075-1.863l2.409-1.389-1.901-.51a1.076 1.076 0 11.559-2.077l3.974 1.065 2.021-1.166-1.897-.51a1.075 1.075 0 11.555-2.077l3.979 1.065 2.655-1.534-2.658-1.533-3.976 1.065a1.075 1.075 0 11-.555-2.078l1.9-.51-2.022-1.165-3.978 1.065a1.075 1.075 0 01-.555-2.078l1.899-.51-2.409-1.389a1.075 1.075 0 111.075-1.862l2.409 1.39-.51-1.9a1.075 1.075 0 012.077-.554l1.065 3.976 2.021 1.165-.507-1.898a1.075 1.075 0 012.077-.555l1.065 3.976 2.658 1.533v-3.068l-2.91-2.91a1.076 1.076 0 111.52-1.523l1.39 1.392V6.896l-2.91-2.91a1.076 1.076 0 111.52-1.522l1.39 1.392v-2.78a1.075 1.075 0 012.15 0v2.78l1.391-1.392a1.076 1.076 0 111.52 1.523l-2.911 2.91v2.335l1.391-1.392a1.076 1.076 0 111.52 1.523l-2.911 2.91v3.068l2.658-1.533 1.064-3.978a1.076 1.076 0 112.078.559l-.508 1.896 2.022-1.165 1.064-3.978a1.076 1.076 0 112.077.559l-.507 1.896 2.408-1.389a1.075 1.075 0 011.076 1.862l-2.409 1.39 1.899.51a1.076 1.076 0 11-.56 2.077l-3.973-1.065-2.022 1.166 1.9.51a1.076 1.076 0 11-.56 2.077l-3.974-1.065-2.658 1.533 2.658 1.534 3.976-1.065a1.075 1.075 0 01.557 2.078l-1.899.51 2.022 1.165 3.976-1.065a1.075 1.075 0 01.557 2.078l-1.899.51 2.409 1.388a1.075 1.075 0 01-1.076 1.863l-2.408-1.39.507 1.9a1.075 1.075 0 11-2.077.554l-1.064-3.976-2.022-1.166.508 1.9a1.075 1.075 0 01-2.078.554l-1.064-3.974-2.658-1.535v3.068l2.912 2.91a1.076 1.076 0 01-1.52 1.522l-1.392-1.39v2.334l2.912 2.91a1.076 1.076 0 01-1.52 1.522l-1.392-1.39v2.78a1.075 1.075 0 01-1.075 1.075zM144.325 163.591a.98.98 0 100 1.96.98.98 0 000-1.96z" />
    <path
      d="M144.325 180.253a.98.98 0 01-.98-.98v-2.535l-1.266 1.268a.98.98 0 01-1.386-1.388l2.652-2.652v-2.96l-4.024-2.414-2.643 1.525-.97 3.626a.98.98 0 11-1.893-.51l.464-1.729-2.195 1.267a.98.98 0 01-.98-1.698l2.195-1.266-1.73-.465a.98.98 0 11.505-1.893l3.626.97 2.745-1.584v-4.528l-2.745-1.584-3.626.97a.98.98 0 11-.508-1.893l1.733-.464-2.195-1.267a.98.98 0 01.98-1.697l2.195 1.266-.464-1.73a.98.98 0 111.893-.506l.97 3.624 2.643 1.525 4.024-2.415v-2.96l-2.652-2.652a.98.98 0 111.386-1.388l1.266 1.268v-2.534a.98.98 0 011.96 0v2.534l1.268-1.268a.98.98 0 111.386 1.388l-2.654 2.652v2.96l4.024 2.415 2.643-1.525.97-3.626a.98.98 0 111.894.51l-.463 1.728 2.195-1.266a.98.98 0 01.98 1.697l-2.195 1.267 1.73.464a.98.98 0 11-.509 1.894l-3.622-.97-2.744 1.583v4.528l2.744 1.584 3.624-.97a.98.98 0 11.508 1.893l-1.731.465 2.195 1.266a.98.98 0 01-.98 1.698l-2.195-1.267.463 1.731a.98.98 0 11-1.894.506l-.97-3.624-2.643-1.525-4.024 2.414v2.96l2.654 2.652a.98.98 0 01-1.386 1.388l-1.268-1.268v2.535a.98.98 0 01-.98.98zm3.92-13.296v-4.771l-3.92-2.352-3.92 2.352v4.77l3.92 2.353zM13.706 116.53a.98.98 0 100 1.96.98.98 0 000-1.96z" />
    <path
      d="M13.706 133.192a.98.98 0 01-.98-.98v-2.535l-1.267 1.269a.98.98 0 01-1.385-1.388l2.652-2.652v-2.96L8.7 121.53l-2.642 1.525-.97 3.626a.98.98 0 11-1.894-.51l.465-1.728-2.196 1.266a.98.98 0 01-.98-1.697l2.196-1.267-1.731-.464a.98.98 0 11.506-1.894l3.626.97 2.744-1.583v-4.528l-2.744-1.584-3.626.97a.98.98 0 11-.508-1.893l1.733-.465-2.196-1.266a.98.98 0 01.98-1.698l2.196 1.267-.465-1.731a.98.98 0 111.894-.506l.97 3.624 2.642 1.525 4.025-2.415v-2.96l-2.652-2.652a.98.98 0 111.385-1.387l1.267 1.268v-2.535a.98.98 0 011.96 0v2.535l1.268-1.268a.98.98 0 111.386 1.387l-2.654 2.653v2.96l4.024 2.414 2.642-1.525.97-3.626a.98.98 0 111.894.51l-.462 1.729 2.195-1.267a.98.98 0 01.98 1.698l-2.195 1.266 1.73.465a.98.98 0 11-.51 1.893l-3.622-.97-2.744 1.584v4.528l2.744 1.584 3.625-.97a.98.98 0 11.508 1.893l-1.731.464 2.195 1.267a.98.98 0 01-.98 1.697l-2.195-1.266.462 1.73a.98.98 0 11-1.893.506l-.97-3.624-2.643-1.525-4.024 2.415v2.96l2.654 2.652a.98.98 0 01-1.386 1.388l-1.268-1.269v2.535a.98.98 0 01-.98.98zm3.92-13.296v-4.77l-3.92-2.353-3.92 2.352v4.771l3.92 2.352z" />
    <g>
      <path
        d="M25.193 57.252a1.102 1.102 0 01-1.102-1.102v-2.849l-1.423 1.426a1.102 1.102 0 01-1.558-1.56l2.981-2.981v-2.393l-1.423 1.426a1.102 1.102 0 01-1.558-1.56l2.981-2.981v-3.144l-2.723 1.57-1.09 4.077a1.102 1.102 0 11-2.129-.573l.522-1.943-2.07 1.194-1.093 4.076a1.102 1.102 0 11-2.129-.573l.523-1.943-2.468 1.423a1.102 1.102 0 01-1.102-1.908l2.468-1.423-1.948-.522a1.102 1.102 0 11.573-2.129l4.072 1.09 2.07-1.193-1.943-.522a1.102 1.102 0 11.569-2.129l4.076 1.09 2.72-1.57-2.722-1.57-4.074 1.09a1.102 1.102 0 11-.569-2.129l1.946-.522-2.071-1.194-4.076 1.09a1.102 1.102 0 01-.569-2.128l1.946-.522-2.468-1.423a1.102 1.102 0 111.102-1.908l2.468 1.423-.523-1.945a1.102 1.102 0 012.129-.569l1.09 4.074 2.071 1.194-.52-1.945a1.102 1.102 0 012.129-.569l1.09 4.074 2.723 1.571v-3.144l-2.98-2.98a1.102 1.102 0 111.557-1.56l1.423 1.425v-2.393l-2.98-2.981a1.102 1.102 0 111.557-1.56l1.423 1.426V23.1a1.102 1.102 0 012.204 0v2.85l1.425-1.426a1.102 1.102 0 111.558 1.56l-2.983 2.981v2.393l1.425-1.426a1.102 1.102 0 111.558 1.56l-2.983 2.981v3.144l2.723-1.57 1.09-4.077a1.102 1.102 0 112.129.573l-.52 1.943 2.07-1.194 1.091-4.076a1.102 1.102 0 112.129.573l-.52 1.943 2.467-1.423a1.102 1.102 0 011.102 1.908l-2.468 1.423 1.946.522a1.102 1.102 0 11-.573 2.129l-4.072-1.09-2.07 1.193 1.945.522a1.102 1.102 0 11-.573 2.129l-4.072-1.09-2.723 1.57 2.723 1.57 4.074-1.09a1.102 1.102 0 01.57 2.129l-1.945.522 2.071 1.194 4.074-1.09a1.102 1.102 0 01.57 2.128l-1.945.522 2.468 1.423a1.102 1.102 0 01-1.102 1.908l-2.467-1.423.52 1.945a1.102 1.102 0 11-2.129.569l-1.09-4.074-2.071-1.194.52 1.945a1.102 1.102 0 01-2.129.569l-1.09-4.072-2.723-1.573v3.144l2.983 2.98a1.102 1.102 0 01-1.558 1.56l-1.425-1.425v2.393l2.983 2.981a1.102 1.102 0 01-1.558 1.56L26.295 53.3v2.85a1.102 1.102 0 01-1.102 1.1z" />
    </g>
  </g>
</svg>