<svg width="32" height="32" xmlns="http://www.w3.org/2000/svg" viewBox="0 0 32 32">
  <g transform="matrix(1.3895 0 0 1.37433 7.978 5.594)">
    <rect width="23.03" height="23.284" x="-5.742" y="-4.07" ry="6.312" rx="5.718" fill="#5865f2"
      paint-order="stroke markers fill" />
    <path
      d="M9.424 11.997l-1.846-1.842-.248.178c-.406.289-1.077.598-1.599.738-.414.111-.6.131-1.228.133-.651.002-.8-.015-1.25-.137-1.829-.5-3.128-1.822-3.607-3.672-.163-.63-.153-1.67.023-2.333.307-1.158.924-2.081 1.844-2.765 1.824-1.355 4.3-1.315 6.05.096a4.951 4.951 0 011.77 2.836c.102.455.117 1.523.025 1.951-.153.722-.453 1.438-.809 1.933l-.179.25 1.759 1.766c.967.97 1.796 1.822 1.842 1.891.083.125.08.13-.26.472-.189.19-.365.346-.392.346-.027 0-.88-.829-1.895-1.841zm-3.92-2.014c1.654-.48 2.725-1.812 2.813-3.498.058-1.152-.304-2.116-1.097-2.919a3.775 3.775 0 00-2.984-1.142 3.48 3.48 0 00-1.498.397c-.782.387-1.385 1.01-1.78 1.84-.433.913-.455 2.123-.055 3.105.35.862 1.149 1.676 2.007 2.048.768.333 1.798.4 2.593.17z"
      fill="#fff" />
  </g>
</svg>