<svg viewBox="0 0 83.309 111.079" xmlns="http://www.w3.org/2000/svg">
  <g fill="currentColor">
    <path
      d="M49.394 47.073a1.265 1.265 0 01.575 1.468L45.41 63.35h8.41a1.265 1.265 0 01.922 2.134L34.494 86.998a1.265 1.265 0 01-2.13-1.24l4.558-14.813h-8.41a1.265 1.265 0 01-.922-2.134l20.247-21.513a1.265 1.265 0 011.557-.228zM31.44 68.413h7.195a1.265 1.265 0 011.21 1.638l-3.463 11.245L50.89 65.883h-7.193a1.265 1.265 0 01-1.21-1.638L45.95 53z" />
    <g fill-rule="evenodd">
      <path
        d="M36.17 5.554C39.503 2.048 41.655 0 41.655 0a75.07 75.07 0 002.575 7.206c5.638 13.51 14.392 23.257 22.195 31.936C75.52 49.264 83.31 57.935 83.31 69.425a41.655 41.655 0 01-83.309 0c0-23.133 24.854-51.95 36.17-63.871zm2.867 7.088A216.952 216.952 0 0026.34 27.7c-5.04 6.596-9.97 13.94-13.608 21.314-3.679 7.449-5.79 14.426-5.79 20.41a34.712 34.712 0 0069.425 0c0-8.337-5.526-14.974-15.142-25.687l-.208-.222c-7.213-8.04-15.891-17.69-21.98-30.88z" />
      <path
        d="M17.724 53.984c5.693-11.392 11.92-19.112 14.53-21.73l4.916 4.916c-2.013 2.013-7.831 9.101-13.24 19.925z" />
    </g>
  </g>
</svg>