<svg viewBox="0 0 113.11 168.297" xmlns="http://www.w3.org/2000/svg">
  <g fill="currentColor">
    <path
      d="M60.088 90.433a1.54 1.54 0 01.7 1.786l-5.546 18.017h10.232a1.54 1.54 0 011.12 2.596l-24.631 26.17a1.54 1.54 0 01-2.593-1.508l5.546-18.02H34.684a1.54 1.54 0 01-1.12-2.596l24.63-26.171a1.54 1.54 0 011.894-.277zm-21.841 25.961H47a1.54 1.54 0 011.472 1.992l-4.212 13.68 17.648-18.75h-8.75a1.54 1.54 0 01-1.472-1.993l4.212-13.68z" />
    <g fill-rule="evenodd">
      <path
        d="M44.001 39.925c4.054-4.266 6.672-6.757 6.672-6.757a91.324 91.324 0 003.134 8.767c6.858 16.435 17.507 28.292 27 38.85 11.064 12.313 20.54 22.861 20.54 36.839a50.673 50.673 0 01-101.347 0c0-28.14 30.235-63.198 44.001-77.7zm3.489 8.622a263.924 263.924 0 00-15.447 18.319c-6.132 8.023-12.128 16.959-16.554 25.928-4.476 9.062-7.043 17.55-7.043 24.83a42.228 42.228 0 0084.455 0c0-10.143-6.722-18.217-18.42-31.249l-.253-.27c-8.775-9.78-19.332-21.52-26.738-37.566z" />
      <path d="M21.562 98.84c6.925-13.858 14.5-23.25 17.676-26.434l5.98 5.98c-2.45 2.449-9.527 11.072-16.106 24.239z" />
    </g>
    <g>
      <path
        d="M87.44 0a3.209 3.209 0 013.208 3.209v19.253H109.9a3.209 3.209 0 010 6.418H90.648v19.253a3.209 3.209 0 01-6.418 0V28.88H64.977a3.209 3.209 0 010-6.418H84.23V3.209A3.209 3.209 0 0187.44 0z" />
    </g>
  </g>
</svg>