<?xml version="1.0" encoding="UTF-8" standalone="no"?>
<!-- Created with Inkscape (http://www.inkscape.org/) -->

<svg
   width="144.14694mm"
   height="200.66733mm"
   viewBox="0 0 144.14694 200.66733"
   version="1.1"
   id="svg1143"
   xml:space="preserve"
   inkscape:export-filename="nitro.svg"
   inkscape:export-xdpi="96"
   inkscape:export-ydpi="96"
   xmlns:inkscape="http://www.inkscape.org/namespaces/inkscape"
   xmlns:sodipodi="http://sodipodi.sourceforge.net/DTD/sodipodi-0.dtd"
   xmlns="http://www.w3.org/2000/svg"
   xmlns:svg="http://www.w3.org/2000/svg"><sodipodi:namedview
     id="namedview1145"
     pagecolor="#ffffff"
     bordercolor="#999999"
     borderopacity="1"
     inkscape:showpageshadow="0"
     inkscape:pageopacity="0"
     inkscape:pagecheckerboard="0"
     inkscape:deskcolor="#d1d1d1"
     inkscape:document-units="mm"
     showgrid="false" /><defs
     id="defs1140" /><g
     inkscape:label="Layer 1"
     inkscape:groupmode="layer"
     id="layer1"
     transform="translate(-82.162019,-102.52451)"><g
       id="g1513"
       transform="matrix(1.5542084,0,0,1.5542084,-24.738109,-17.182339)"><g
         style="fill:currentColor"
         id="g1331"
         transform="matrix(2.5309407,0,0,2.5309407,89.699486,141.95486)"><path
           d="m 11.251,0.068 a 0.5,0.5 0 0 1 0.227,0.58 L 9.677,6.5 H 13 a 0.5,0.5 0 0 1 0.364,0.843 l -8,8.5 A 0.5,0.5 0 0 1 4.522,15.353 L 6.323,9.5 H 3 A 0.5,0.5 0 0 1 2.636,8.657 l 8,-8.5 a 0.5,0.5 0 0 1 0.615,-0.09 z M 4.157,8.5 H 7 A 0.5,0.5 0 0 1 7.478,9.147 L 6.11,13.59 11.842,7.5 H 9 A 0.5,0.5 0 0 1 8.522,6.853 L 9.89,2.41 Z"
           id="path1322" /></g><g
         style="fill:currentColor"
         id="g1441"
         transform="matrix(6.942451,0,0,6.942451,54.896175,95.054127)"
         inkscape:export-filename="nitro-basic.svg"
         inkscape:export-xdpi="96"
         inkscape:export-ydpi="96"><path
           fill-rule="evenodd"
           d="M 7.21,0.8 C 7.69,0.295 8,0 8,0 c 0.109,0.363 0.234,0.708 0.371,1.038 0.812,1.946 2.073,3.35 3.197,4.6 C 12.878,7.096 14,8.345 14,10 A 6,6 0 0 1 2,10 C 2,6.668 5.58,2.517 7.21,0.8 Z M 7.623,1.821 A 31.25,31.25 0 0 0 5.794,3.99 C 5.068,4.94 4.358,5.998 3.834,7.06 3.304,8.133 3,9.138 3,10 a 5,5 0 0 0 10,0 C 13,8.799 12.204,7.843 10.819,6.3 L 10.789,6.268 C 9.75,5.11 8.5,3.72 7.623,1.82 Z"
           id="path1429" /><path
           fill-rule="evenodd"
           d="M 4.553,7.776 C 5.373,6.135 6.27,5.023 6.646,4.646 l 0.708,0.708 c -0.29,0.29 -1.128,1.311 -1.907,2.87 z"
           id="path1431" /></g></g><g
       style="fill:currentColor"
       id="g1642"
       transform="matrix(5.0042606,0,0,5.0042606,150.19597,110.68125)"
       inkscape:export-filename="nitro.svg"
       inkscape:export-xdpi="96"
       inkscape:export-ydpi="96"><path
         d="m 8,4 a 0.5,0.5 0 0 1 0.5,0.5 v 3 h 3 a 0.5,0.5 0 0 1 0,1 h -3 v 3 a 0.5,0.5 0 0 1 -1,0 v -3 h -3 a 0.5,0.5 0 0 1 0,-1 h 3 v -3 A 0.5,0.5 0 0 1 8,4 Z"
         id="path1633" /></g><g
       style="fill:currentColor"
       id="g1776"
       transform="matrix(4.4873826,0,0,4.4873826,172.46037,84.574978)"
       inkscape:export-filename="nitro.svg"
       inkscape:export-xdpi="96"
       inkscape:export-ydpi="96"><path
         d="m 8,4 a 0.5,0.5 0 0 1 0.5,0.5 v 3 h 3 a 0.5,0.5 0 0 1 0,1 h -3 v 3 a 0.5,0.5 0 0 1 -1,0 v -3 h -3 a 0.5,0.5 0 0 1 0,-1 h 3 v -3 A 0.5,0.5 0 0 1 8,4 Z"
         id="path1774" /></g></g></svg>
