<svg viewBox="0 0 85.646 89.585" xmlns="http://www.w3.org/2000/svg">
  <g fill="currentColor">
    <path d="M9.175 78.43a.656.656 0 100 1.313.656.656 0 000-1.312z" />
    <path
      d="M9.175 89.585a.656.656 0 01-.656-.656v-1.697l-.847.849a.656.656 0 01-.928-.93l1.775-1.775v-1.981l-2.694-1.617L4.056 82.8l-.65 2.428a.656.656 0 11-1.267-.341l.311-1.158-1.47.848a.656.656 0 01-.656-1.137l1.47-.847-1.159-.311a.656.656 0 11.339-1.268l2.428.65 1.837-1.06V77.57l-1.837-1.06-2.428.65a.656.656 0 11-.34-1.268l1.16-.311-1.47-.848a.656.656 0 01.656-1.137l1.47.848-.31-1.159a.656.656 0 111.267-.338l.65 2.426 1.768 1.021 2.694-1.617v-1.981l-1.775-1.776a.656.656 0 11.928-.929l.847.85v-1.697a.656.656 0 011.313 0v1.696l.849-.849a.656.656 0 11.927.93l-1.776 1.775v1.981l2.694 1.617 1.769-1.02.65-2.428a.656.656 0 111.267.34l-.31 1.158 1.47-.848a.656.656 0 01.656 1.137l-1.47.848 1.159.31a.656.656 0 11-.341 1.268l-2.425-.65-1.837 1.061v3.031l1.837 1.06 2.426-.649a.656.656 0 11.34 1.268l-1.159.31 1.47.848a.656.656 0 01-.656 1.137l-1.47-.848.31 1.159a.656.656 0 11-1.268.338l-.65-2.426-1.768-1.02-2.694 1.616v1.981l1.776 1.776a.656.656 0 01-.927.929l-.85-.85v1.698a.656.656 0 01-.656.656zm2.625-8.901V77.49l-2.625-1.575-2.624 1.575v3.194l2.624 1.574zM57.842 60.415a27.366 27.345 0 10-5.882 5.882h-.004c.126.168.261.328.413.483l16.209 16.197a4.211 4.208 0 005.957-5.949L58.326 60.832a4.24 4.236 0 00-.484-.421zm1.086-16.171a23.156 23.138 0 11-46.311 0 23.156 23.138 0 0146.311 0zM60.986 19.853a.62.62 0 01-.62-.62v-1.605l-.802.803a.62.62 0 01-.878-.878l1.68-1.68v-1.347l-.802.803a.62.62 0 01-.878-.878l1.68-1.68v-1.77l-1.534.885-.615 2.295a.62.62 0 11-1.198-.322l.294-1.095-1.167.673-.615 2.295a.62.62 0 11-1.199-.322l.294-1.095-1.39.802a.62.62 0 01-.62-1.075l1.39-.801-1.097-.294a.62.62 0 11.323-1.199l2.293.614 1.166-.672-1.094-.294a.62.62 0 11.32-1.199l2.295.614 1.533-.884-1.534-.885-2.294.614a.62.62 0 11-.32-1.199l1.095-.294-1.166-.672-2.295.614a.62.62 0 01-.32-1.199l1.095-.294-1.39-.801a.62.62 0 11.62-1.075l1.39.802-.294-1.096a.62.62 0 011.199-.32l.614 2.294 1.167.673-.293-1.096a.62.62 0 011.198-.32l.615 2.294 1.533.885v-1.77l-1.679-1.68a.62.62 0 11.878-.878l.801.803V3.979L58.686 2.3a.62.62 0 11.878-.878l.801.803V.62a.62.62 0 011.241 0v1.605l.803-.803a.62.62 0 11.877.878l-1.68 1.68v1.347l.803-.803a.62.62 0 11.877.879l-1.68 1.678v1.771l1.534-.885.614-2.295a.62.62 0 111.199.322L64.66 7.09l1.166-.673.614-2.295a.62.62 0 111.199.322l-.293 1.095 1.39-.802a.62.62 0 01.62 1.075l-1.39.801 1.096.294a.62.62 0 11-.322 1.2l-2.293-.615-1.167.672 1.096.294a.62.62 0 11-.323 1.2l-2.293-.615-1.533.885 1.533.884 2.294-.614a.62.62 0 01.322 1.199l-1.096.294 1.167.672 2.294-.614a.62.62 0 01.321 1.199l-1.095.294 1.39.801a.62.62 0 01-.621 1.075l-1.39-.802.293 1.096a.62.62 0 11-1.199.32l-.614-2.294-1.166-.673.293 1.096a.62.62 0 01-1.199.32l-.614-2.293-1.534-.886v1.77l1.68 1.68a.62.62 0 01-.877.878l-.803-.803v1.348l1.68 1.679a.62.62 0 01-.877.878l-.803-.803v1.605a.62.62 0 01-.62.62z" />
    <g>
      <path
        d="M76.969 57.94a.62.62 0 01-.62-.62v-1.604l-.802.803a.62.62 0 01-.878-.879l1.68-1.679v-1.347l-.802.803a.62.62 0 01-.878-.879l1.68-1.679v-1.77l-1.534.884-.615 2.296a.62.62 0 11-1.198-.323l.294-1.094-1.167.673-.615 2.295a.62.62 0 11-1.199-.323l.294-1.094-1.39.802a.62.62 0 01-.62-1.075l1.39-.802-1.097-.294a.62.62 0 11.323-1.198l2.293.614 1.166-.673-1.094-.294a.62.62 0 11.32-1.198l2.295.614 1.533-.885-1.534-.884-2.294.614a.62.62 0 11-.32-1.199l1.095-.294-1.166-.673-2.296.615a.62.62 0 01-.32-1.199l1.096-.294-1.39-.802a.62.62 0 11.62-1.074l1.39.801-.294-1.095a.62.62 0 011.199-.32l.614 2.294 1.167.672-.293-1.095a.62.62 0 011.198-.32l.615 2.294 1.533.885v-1.771L74.67 43.49a.62.62 0 11.878-.878l.801.802v-1.347l-1.679-1.679a.62.62 0 11.878-.878l.801.802v-1.604a.62.62 0 011.241 0v1.604l.803-.802a.62.62 0 11.877.878l-1.68 1.679v1.347l.803-.802a.62.62 0 11.877.878l-1.68 1.679v1.77l1.534-.884.614-2.296a.62.62 0 111.199.323l-.293 1.094 1.166-.672.614-2.296a.62.62 0 111.199.323l-.293 1.094 1.39-.801a.62.62 0 01.62 1.074l-1.39.802 1.096.294a.62.62 0 11-.322 1.199l-2.293-.615-1.167.673 1.096.294a.62.62 0 11-.323 1.199l-2.293-.614-1.534.884 1.534.885 2.294-.614a.62.62 0 01.322 1.198l-1.096.294 1.167.673 2.294-.614a.62.62 0 01.321 1.198l-1.095.294 1.39.802a.62.62 0 01-.621 1.075l-1.39-.802.293 1.096a.62.62 0 11-1.199.32l-.614-2.294-1.166-.673.293 1.096a.62.62 0 01-1.2.32l-.613-2.293-1.534-.886v1.77l1.68 1.68a.62.62 0 01-.877.878l-.803-.803v1.347l1.68 1.68a.62.62 0 01-.877.878l-.803-.803v1.604a.62.62 0 01-.62.62z" />
    </g>
  </g>
</svg>