<svg viewBox="0 0 74.534 74.55" xmlns="http://www.w3.org/2000/svg">
   <path
      d="M15.633 23.028c0 5.909 3.998 14.572 3.998 14.572S12.25 48.293 12.25 55.933c0 2.01.875 5.685 6.176 5.685 4.438 0 9.423-2.67 10.362-3.212-.82 1.171-1.426 3.397-1.426 4.417 0 .838.497 3.212 3.919 3.212 4.397 0 9.309-3.37 9.309-3.37 5.715-3.398 11.408-11.205 11.408-11.205s.59.019 5.169.019c7.175 0 17.367-1.51 17.367-7.212 0-5.885-9.162-11.203-9.162-11.203s6.168.313 6.168-3.317c0-4.739-6.143-7.997-9.097-9.4-6.47-3.072-14.697-3.873-14.697-3.873S39.922 0 32.564 0c-7.295 0-7.26 14.107-7.26 14.107s-2.061-4-4.648-4c-3.781 0-5.023 5.627-5.023 12.921zm50.54 6.493c0 2.081-1.98 2.056-1.98 2.056l-1.504.1s-2.857-1.504-4.588-2.206c0 0 2.682-4.136 3.309-5.29.477.276 4.763 2.958 4.763 5.34zM36.155 8.3c3.372 0 8.186 7.961 8.186 7.961s-7.512-.674-13.695 2.961c.169-5.732 2.1-10.922 5.509-10.922zm-13.362 6.451c1.07 0 2.12 1.304 2.553 2.409 0 .73.38 4.994.38 4.994l-6.192-.233c0-5.586 2.188-7.17 3.259-7.17zm-.641 38.782c-3.383 0-4.081-1.885-4.081-3.583 0-3.844 3.067-9.218 3.067-9.218s3.434 7.23 9.435 10.281c-2.978 1.748-5.434 2.52-8.421 2.52zm10.986 7.57c-2.371 0-2.66-1.538-2.66-1.896 0-1.104.863-2.407.863-2.407s3.988-2.695 4.239-2.982l2.947 5.498c-.001-.001-3.018 1.787-5.39 1.787zm7.4-2.999c-1.443-2.524-2.507-5.161-2.507-5.161s5.93.385 9.116-2.911c-1.987.894-5.151 2.02-8.836 1.68 7.703-6.786 12.194-11.702 15.996-16.783-.328-.394-2.065-1.607-2.492-1.812-2.295 2.762-11.211 12.3-19.47 17.021-10.456-5.704-12.652-22.486-12.874-25.972l5.712.549s-2.146 3.806-2.146 6.607.335 2.948.335 2.948-.072-4.882 2.943-8.652c2.295 12.227 4.689 18.49 6.556 22.225.95-.394 2.72-1.18 2.72-1.18S30.314 31.454 30.61 21.16c2.393-1.279 5.934-2.596 9.932-2.596 10.52 0 18.98 4.53 18.98 4.53l-3.311 4.622s-2.95-5.343-7.112-6.293c2.196 1.638 4.655 3.803 5.934 6.917-8.72-3.409-19.241-5.212-22.617-5.605-.295 1.246-.255 3.025-.255 3.025s14.11 2.606 24.38 8.482c-.072 12.849-14.07 22.716-16.002 23.862zM53.904 48.5s4.383-5.749 4.31-13.366c0 0 7.079 4.383 7.079 8.66 0 4.777-11.39 4.706-11.39 4.706zm-4.381 25.77c-.39-.39-.4-1.02-.02-1.42.39-.39 1.02-.4 1.42-.02.39.39.4 1.02.02 1.42-.2.2-.46.3-.72.3-.25 0-.5-.09-.7-.28zm-2.8-2.98a.998.998 0 01.11-1.41 1 1 0 111.3 1.52c-.19.16-.42.24-.65.24-.28 0-.56-.12-.76-.35zm-2.5-3.26a.997.997 0 01.26-1.39c.46-.31 1.08-.19 1.39.26.31.46.19 1.08-.26 1.39a.98.98 0 01-.56.18c-.32 0-.64-.16-.83-.44zm-2.09-3.66a.994.994 0 01.56-1.3c.51-.2 1.09.05 1.3.56.2.51-.05 1.09-.56 1.3-.12.05-.25.07-.37.07-.4 0-.78-.24-.93-.63zm21.05-45.58c-.45-.32-.54-.95-.22-1.4v.01c.33-.45.95-.55 1.4-.22.45.32.55.95.22 1.39a1.01 1.01 0 01-1.4.22zm2.11-3.39c-.5-.24-.71-.84-.47-1.34.23-.49.83-.71 1.33-.47.5.24.71.83.48 1.33-.18.36-.54.57-.91.57-.14 0-.29-.03-.43-.09zm1.63-3.66a.985.985 0 01-.59-1.28c.18-.52.76-.78 1.28-.59.52.19.78.76.59 1.28-.15.4-.53.65-.94.65-.11 0-.23-.02-.34-.06zm1.3-3.78a.991.991 0 01-.68-1.23.99.99 0 011.23-.69c.54.15.84.7.69 1.23-.12.44-.52.73-.96.73-.09 0-.18-.01-.28-.04zM.033 24.79a.997.997 0 01.71-1.22.997.997 0 11.51 1.93c-.09.03-.17.04-.26.04-.44 0-.85-.3-.96-.75zm3.88-.94c-.1-.55.26-1.07.81-1.17.54-.1 1.06.26 1.16.8.1.55-.26 1.07-.8 1.17-.06.01-.12.02-.18.02-.48 0-.9-.34-.99-.82zm3.95-.65a.998.998 0 01.91-1.08.99.99 0 011.08.9 1 1 0 01-.9 1.09h-.1c-.51 0-.94-.39-.99-.91zm4.9.81a.992.992 0 01-.9-1.09 1 1 0 111.99.19c-.05.52-.49.91-1 .91-.03 0-.06 0-.09-.01z" />
</svg>