<?xml version="1.0" encoding="UTF-8" standalone="no"?>
<svg viewBox="0 0 74.533897 74.550003" width="74.533897" height="74.550003" version="1.1" id="svg260"
   xmlns="http://www.w3.org/2000/svg" xmlns:svg="http://www.w3.org/2000/svg">
   <defs id="defs264" />
   <path
      d="m 15.632897,23.028 c 0,5.909 3.998,14.572 3.998,14.572 0,0 -7.381,10.693 -7.381,18.333 0,2.01 0.875,5.685 6.176,5.685 4.438,0 9.423,-2.67 10.362,-3.212 -0.819,1.171 -1.426,3.397 -1.426,4.417 0,0.838 0.497,3.212 3.919,3.212 4.397,0 9.309,-3.37 9.309,-3.37 5.715,-3.398 11.408,-11.205 11.408,-11.205 0,0 0.591,0.019 5.169,0.019 7.175,0 17.367,-1.51 17.367,-7.212 0,-5.885 -9.162,-11.203 -9.162,-11.203 0,0 6.168,0.313 6.168,-3.317 0,-4.739 -6.143,-7.997 -9.097,-9.4 -6.469,-3.072 -14.697,-3.873 -14.697,-3.873 0,0 -7.824,-16.474 -15.182,-16.474 -7.295,0 -7.259,14.107 -7.259,14.107 0,0 -2.062,-4 -4.649,-4 -3.781,0 -5.023,5.627 -5.023,12.921 z m 50.54,6.493 c 0,2.081 -1.98,2.056 -1.98,2.056 l -1.504,0.1 c 0,0 -2.857,-1.504 -4.588,-2.206 0,0 2.682,-4.136 3.309,-5.29 0.477,0.276 4.763,2.958 4.763,5.34 z M 36.154897,8.3 c 3.372,0 8.186,7.961 8.186,7.961 0,0 -7.512,-0.674 -13.695,2.961 0.169,-5.732 2.1,-10.922 5.509,-10.922 z m -13.362,6.451 c 1.071,0 2.121,1.304 2.553,2.409 0,0.73 0.38,4.994 0.38,4.994 l -6.192,-0.233 c 0,-5.586 2.188,-7.17 3.259,-7.17 z m -0.641,38.782 c -3.383,0 -4.081,-1.885 -4.081,-3.583 0,-3.844 3.067,-9.218 3.067,-9.218 0,0 3.434,7.23 9.435,10.281 -2.978,1.748 -5.434,2.52 -8.421,2.52 z m 10.986,7.57 c -2.371,0 -2.66,-1.538 -2.66,-1.896 0,-1.104 0.863,-2.407 0.863,-2.407 0,0 3.988,-2.695 4.239,-2.982 l 2.947,5.498 c -10e-4,-0.001 -3.018,1.787 -5.389,1.787 z m 7.4,-2.999 c -1.443,-2.524 -2.507,-5.161 -2.507,-5.161 0,0 5.931,0.385 9.116,-2.911 -1.987,0.894 -5.151,2.02 -8.836,1.68 7.703,-6.786 12.194,-11.702 15.996,-16.783 -0.328,-0.394 -2.065,-1.607 -2.492,-1.812 -2.295,2.762 -11.211,12.3 -19.47,17.021 -10.456,-5.704 -12.652,-22.486 -12.874,-25.972 l 5.712,0.549 c 0,0 -2.146,3.806 -2.146,6.607 0,2.801 0.335,2.948 0.335,2.948 0,0 -0.072,-4.882 2.943,-8.652 2.295,12.227 4.689,18.49 6.556,22.225 0.95,-0.394 2.721,-1.18 2.721,-1.18 0,0 -5.279,-15.209 -4.983,-25.503 2.393,-1.279 5.934,-2.596 9.932,-2.596 10.521,0 18.98,4.53 18.98,4.53 l -3.311,4.622 c 0,0 -2.95,-5.343 -7.112,-6.293 2.196,1.638 4.655,3.803 5.934,6.917 -8.719,-3.409 -19.241,-5.212 -22.617,-5.605 -0.295,1.246 -0.255,3.025 -0.255,3.025 0,0 14.11,2.606 24.38,8.482 -0.072,12.849 -14.069,22.716 -16.002,23.862 z m 13.366,-9.604 c 0,0 4.383,-5.749 4.311,-13.366 0,0 7.078,4.383 7.078,8.66 0,4.777 -11.389,4.706 -11.389,4.706 z m -4.381,25.77 c -0.39,-0.39 -0.4,-1.02 -0.02,-1.42 v 0 c 0.39,-0.39 1.02,-0.4 1.42,-0.02 v 0 c 0.39,0.39 0.4,1.02 0.02,1.42 v 0 c -0.2,0.2 -0.46,0.3 -0.72,0.3 v 0 c -0.25,0 -0.5,-0.09 -0.7,-0.28 z m -2.8,-2.98 c -0.36,-0.42 -0.31,-1.06 0.11,-1.41 v 0 c 0.42,-0.36 1.05,-0.31 1.41,0.11 v 0 c 0.36,0.41 0.31,1.05 -0.11,1.41 v 0 c -0.19,0.16 -0.42,0.24 -0.65,0.24 v 0 c -0.28,0 -0.56,-0.12 -0.76,-0.35 z m -2.5,-3.26 c -0.31,-0.46 -0.2,-1.08 0.26,-1.39 v 0 c 0.46,-0.31 1.08,-0.19 1.39,0.26 v 0 c 0.31,0.46 0.19,1.08 -0.26,1.39 v 0 c -0.17,0.12 -0.37,0.18 -0.56,0.18 v 0 c -0.32,0 -0.64,-0.16 -0.83,-0.44 z m -2.09,-3.66 v 0 c -0.21,-0.51 0.04,-1.09 0.56,-1.3 v 0 c 0.51,-0.2 1.09,0.05 1.3,0.56 v 0 c 0.2,0.51 -0.05,1.09 -0.56,1.3 v 0 c -0.12,0.05 -0.25,0.07 -0.37,0.07 v 0 c -0.4,0 -0.78,-0.24 -0.93,-0.63 z m 21.05,-45.58 c -0.45,-0.32 -0.54,-0.95 -0.22,-1.4 v 0 c 0,0 0,0 0,0.01 v 0 c 0.33,-0.45 0.95,-0.55 1.4,-0.22 v 0 c 0.45,0.32 0.55,0.95 0.22,1.39 v 0 c -0.2,0.27 -0.5,0.41 -0.81,0.41 v 0 c -0.2,0 -0.41,-0.06 -0.59,-0.19 z m 2.11,-3.39 c -0.5,-0.24 -0.71,-0.84 -0.47,-1.34 v 0 c 0.23,-0.49 0.83,-0.71 1.33,-0.47 v 0 c 0.5,0.24 0.71,0.83 0.48,1.33 v 0 c -0.18,0.36 -0.54,0.57 -0.91,0.57 v 0 c -0.14,0 -0.29,-0.03 -0.43,-0.09 z m 1.63,-3.66 c -0.52,-0.19 -0.79,-0.76 -0.59,-1.28 v 0 c 0.18,-0.52 0.76,-0.78 1.28,-0.59 v 0 c 0.52,0.19 0.78,0.76 0.59,1.28 v 0 c -0.15,0.4 -0.53,0.65 -0.94,0.65 v 0 c -0.11,0 -0.23,-0.02 -0.34,-0.06 z m 1.3,-3.78 c -0.53,-0.15 -0.83,-0.7 -0.68,-1.23 v 0 c 0.15,-0.54 0.7,-0.84 1.23,-0.69 v 0 c 0.54,0.15 0.84,0.7 0.69,1.23 v 0 c -0.12,0.44 -0.52,0.73 -0.96,0.73 v 0 c -0.09,0 -0.18,-0.01 -0.28,-0.04 z M 0.03289714,24.79 c -0.14,-0.54 0.18,-1.08 0.71,-1.22 v 0 C 1.2728971,23.43 1.8228971,23.75 1.9628971,24.28 v 0 c 0.14,0.54 -0.18,1.08 -0.71,1.22 v 0 c -0.09,0.03 -0.17,0.04 -0.25999996,0.04 v 0 c -0.44,0 -0.85,-0.3 -0.96,-0.75 z M 3.9128971,23.85 c -0.1,-0.55 0.26,-1.07 0.81,-1.17 v 0 c 0.54,-0.1 1.06,0.26 1.16,0.8 v 0 c 0.1,0.55 -0.26,1.07 -0.8,1.17 v 0 c -0.06,0.01 -0.12,0.02 -0.18,0.02 v 0 c -0.48,0 -0.9,-0.34 -0.99,-0.82 z m 3.95,-0.65 c -0.05,-0.55 0.36,-1.03 0.91,-1.08 v 0 c 0.55,-0.05 1.03,0.35 1.08,0.9 v 0 c 0.05,0.55 -0.35,1.04 -0.9,1.09 v 0 c -0.03,0 -0.06,0 -0.1,0 v 0 c -0.51,0 -0.94,-0.39 -0.99,-0.91 z m 4.8999999,0.81 v 0 0 c -0.55,-0.05 -0.96,-0.54 -0.9,-1.09 v 0 c 0.05,-0.55 0.54,-0.95 1.09,-0.9 v 0 c 0.55,0.05 0.95,0.54 0.9,1.09 v 0 c -0.05,0.52 -0.49,0.91 -1,0.91 v 0 c -0.03,0 -0.06,0 -0.09,-0.01 z"
      id="path258" />
</svg>