<svg width="50.002" height="20.031" xmlns="http://www.w3.org/2000/svg">
   <path
      d="M12.596 0l.031 9.969c-.11-1.852-.965-5.563-6.156-5.563-6.254 0-6.5 4.864-6.469 6.125 0 0-.305 5.688 6.313 5.688 5.683 0 5.968-3.563 5.968-3.563H9.658s-.515 1.992-3.343 1.938C2.678 14.527 2.533 11 2.533 11h10.094l.031 2.281s-.03 1.54-.125 2.563h2.438l.125-1.5s1.133 1.875 4.469 1.875c2.867 0 5.222-1.504 5.875-4.344-.512 3.34 2.449 4.36 4.78 4.344 2.333-.012 3.669-.688 4.657-1.938l.125 1.531h2.313s-.07-.874-.063-2.593c.008-1.719.059-3.262 0-4.344-.027-.55-.031-1.438-.469-2.281-.562-1.086-1.855-2.094-4.906-2.219 0 0-5.21-.465-5.75 3.406h2.656s.207-1.77 2.907-1.718c2.554.046 3.047 1.304 3.03 2.843 0 0-2.206-.004-2.937 0-1.293.008-5.734.16-6.312 2.813.086-.422.117-.867.125-1.344.07-3.813-2.824-5.953-5.969-5.969-3.144-.02-4.5 1.875-4.5 1.875V0zm24.187 6.594l4.907 9.218-2.25 4.22h2.812l7.75-15.188h-2.656l-4.281 8.5-4.282-8.5h-2.906zM6.408 6.062c3.582 0 3.594 3.188 3.594 3.188H2.627s.184-3.188 3.781-3.188zm12.625.063c4.043-.105 3.907 4.281 3.907 4.281s.062 4.074-3.907 4.125c-3.968.051-3.906-4.219-3.906-4.219s-.137-4.082 3.906-4.187zm12.22 4.469c.374-.02.624 0 .624 0h2.844s.469 4.09-4.063 4.031c0 0-2.507-.012-2.656-2.031-.117-1.617 2.121-1.938 3.25-2z" />
</svg>