<svg fill-rule="evenodd" clip-rule="evenodd" width="30" height="37.793" xmlns="http://www.w3.org/2000/svg">
   <path fill="#424242"
      d="M28.846 31.539l-13 6.067c-.536.25-1.155.25-1.692 0l-13-6.067A2.001 2.001 0 010 29.726V2a2 2 0 012-2h26a2 2 0 012 2v27.726c0 .777-.45 1.484-1.154 1.813z" />
   <path fill="#fff"
      d="M20.39 31H9.588c-.137 0-.178.187-.053.243l5.288 2.407a.13.13 0 00.104.001l5.513-2.407c.127-.055.088-.244-.05-.244zM3.449 18.717h4.332v-2.166H5.615v-3.61h2.166v-2.165H5.615v-3.61h2.166V5H3.449zM16.444 5h2.166v13.717h-2.166zm-5.054 9.385h1.153c1.644 0 2.457-.822 2.457-2.486V7.64C15 5.873 14.132 5 12.374 5H9.225v13.717h2.166v-4.332zm0-7.219h.722c.399 0 .722.323.722.722v3.61a.722.722 0 01-.722.722h-.722zm15.161 8.988v-2.491h-2.166v2.04c0 .579-.279.848-.858.848h-.429c-.601 0-.879-.269-.879-.848V7.887c0-.399.323-.722.722-.722h.722c.399 0 .722.323.722.722v2.166h2.166V7.615c0-1.764-.877-2.616-2.695-2.616H22.77c-1.817 0-2.716.872-2.716 2.637v8.445c0 1.764.899 2.636 2.716 2.636h1.1c1.794 0 2.681-.848 2.681-2.563zm-.057 9.04l-.006-.06-.012-.06-.012-.06-.012-.054-.018-.054-.018-.053-.023-.048-.03-.054-.03-.048-.036-.055-.035-.047-.042-.042-.042-.048-.048-.042-.047-.042-.048-.03-.048-.036-.047-.03-.054-.03-.054-.03-.06-.03-.06-.023-.059-.03-.066-.024-.053-.018-.054-.018-.06-.018-.053-.018-.06-.018-.059-.018-.06-.012-.066-.018-.06-.018-.065-.012-.066-.018-.065-.018-.066-.018-.06-.012-.053-.018-.054-.012-.048-.017-.047-.012-.072-.025-.066-.023-.059-.025-.048-.03-.054-.03-.041-.042-.024-.035-.03-.066-.006-.078v-.012l.006-.06.024-.054.035-.054.054-.048.042-.024.048-.024.053-.012.06-.012.065-.012h.132l.053.006.06.006.06.006.059.012.06.013.06.011.059.018.06.018.066.018.047.024.054.018.047.024.055.024.047.024.054.024.048.03.054.024.047.036.048.03.053.03.048.035.036-.048.03-.047.035-.048.036-.048.036-.054.03-.048.036-.048.036-.047.03-.049.035-.048.036-.048.03-.048.035-.053.036-.049.036-.047.03-.048.036-.048-.048-.036-.047-.036-.048-.036-.048-.03-.054-.036-.047-.03-.054-.03-.054-.03-.048-.024-.054-.03-.059-.024-.053-.023-.054-.025-.054-.018-.06-.024-.053-.011-.054-.019-.06-.018-.054-.011-.059-.012-.059-.012-.055-.012-.059-.013-.065-.005-.06-.012-.066-.006h-.06l-.065-.007-.066-.005h-.256l-.059.005-.06.007-.06.006-.06.006-.053.011-.06.013-.054.012-.054.012-.047.012-.054.018-.06.023-.059.018-.054.024-.053.03-.054.025-.054.029-.048.03-.047.036-.048.036-.042.03-.047.042-.042.048-.042.042-.042.048-.036.048-.035.048-.03.054-.03.054-.023.053-.025.055-.023.053-.012.054-.018.054-.012.054-.012.054-.006.06-.006.054-.006.06v.138l.006.065.006.06.006.06.012.054.012.06.018.048.017.054.018.048.025.042.03.053.029.048.03.042.035.042.037.042.041.042.042.042.041.036.048.03.048.036.054.03.048.03.059.03.054.03.059.023.06.025.06.023.065.025.054.017.053.018.054.019.059.011.055.019.059.018.06.011.06.019.059.011.066.019.06.011.065.019.06.011.059.018.054.012.054.018.048.012.041.012.072.03.06.024.053.024.048.024.048.036.041.036.03.042.024.059.006.072v.013l-.006.06-.018.053-.024.049-.035.041-.048.037-.042.023-.048.018-.054.012-.053.012-.06.012-.065.006h-.132l-.065-.006h-.06l-.06-.012-.065-.006-.059-.012-.06-.012-.06-.012-.054-.018-.059-.018-.06-.018-.054-.024-.054-.018-.053-.024-.054-.023-.054-.025-.047-.03-.054-.023-.048-.03-.053-.037-.048-.03-.053-.035-.048-.036-.054-.036-.048-.036-.036.048-.041.042-.036.048-.042.047-.036.043-.035.047-.042.048-.035.042-.043.048-.035.042-.042.048-.036.048-.035.042-.042.048-.036.048-.042.042-.036.047.048.043.041.035.048.037.048.035.048.036.047.036.048.03.048.03.054.03.048.03.053.03.054.024.054.03.053.024.054.024.059.023.054.018.06.019.053.023.06.018.06.019.053.011.06.018.059.012.06.012.06.012.06.013.06.005.059.012.065.006.06.007.059.005h.066l.06.006h.25l.06-.006.066-.005.06-.007.053-.006.059-.006.06-.011.054-.013.054-.012.059-.012.054-.018.06-.018.06-.017.059-.025.06-.023.053-.03.054-.024.054-.03.047-.036.048-.03.048-.036.041-.036.048-.042.036-.035.042-.043.035-.042.03-.047.036-.048.03-.048.03-.048.024-.054.023-.048.025-.054.018-.06.011-.054.018-.06.012-.06.006-.066.006-.059.006-.066v-.144zm-4.243.485h-2.218v-.743h2.075v-.928h-2.075v-.713h2.308v-.988h-3.448v4.361h3.478v-.989h-.06zm-4.357-3.372h-1.103l-.03.048-.03.053-.036.048-.03.054-.03.048-.03.054-.035.047-.03.055-.03.047-.03.048-.036.054-.029.048-.03.054-.03.048-.036.053-.03.048-.03.048-.03.054-.03.048-.035.053-.03.048-.03.054-.029.048-.037.054-.029.047-.03.048-.03.054-.035.048-.03.054-.03.048-.03.053-.036.049-.03.053-.03.048-.029-.048-.03-.053-.036-.049-.029-.053-.03-.048-.03-.054-.03-.048-.036-.054-.03-.048-.03-.047-.029-.054-.03-.048-.036-.054-.03-.048-.03-.053-.029-.048-.03-.054-.036-.048-.03-.048-.03-.053-.03-.048-.035-.054-.03-.048-.03-.054-.03-.048-.03-.047-.035-.055-.03-.047-.03-.054-.029-.048-.031-.054-.036-.048-.03-.053-.029-.048H13.45v4.361h1.134v-2.567l.035.048.03.054.036.048.03.054.035.048.03.054.036.048.03.054.036.047.029.055.036.048.03.054.036.048.03.054.035.047.03.055.036.048.036.054.03.048.035.054.03.048.037.054.029.048.036.054.029.048.037.054.03.048.035.054.03.048.036.054.03.048.035.054.03.048.036.054h.023l.03-.048.036-.054.03-.048.036-.048.029-.054.037-.048.029-.048.03-.054.036-.048.03-.048.036-.048.03-.054.035-.048.03-.048.03-.054.036-.048.03-.048.035-.054.03-.048.036-.048.03-.054.03-.048.035-.048.03-.054.036-.049.03-.047.035-.048.03-.054.03-.048.036-.049.03-.053.035-.048.03-.048.036-.054.03-.048v2.579h1.151v-4.361h-.06zm-4.977 4.253l-.024-.054-.018-.06-.024-.054-.024-.054-.024-.054-.024-.054-.024-.054-.024-.06-.024-.054-.018-.054-.024-.054-.024-.054-.024-.054-.025-.062-.024-.054-.024-.054-.024-.054-.017-.054-.024-.054-.024-.06-.024-.054-.024-.054-.024-.054-.024-.054-.024-.054-.018-.06-.024-.054-.024-.054-.024-.054-.024-.054-.024-.054-.024-.06-.024-.054-.018-.054-.024-.054-.024-.054-.024-.054-.024-.06-.015-.044-.024-.054-.024-.054-.017-.054-.024-.054-.024-.054-.024-.06-.024-.054-.024-.054-.024-.054-.024-.054-.018-.054-.024-.06-.024-.054-.024-.054-.024-.054-.024-.054-.024-.054-.024-.06-.018-.054-.024-.054-.024-.054-.024-.054-.024-.054-.024-.06-.024-.054-.024-.054-.017-.054-.024-.054-.024-.054-.024-.06-.024-.054-.024-.054-.024-.054-.024-.054-.01-.044-.024-.06-.024-.054-.024-.054-.024-.054h-1.11l-.024.054-.024.054-.024.054-.018.06-.024.053-.024.054-.024.054-.024.054-.024.054-.024.06-.024.054-.017.054-.024.054-.024.054-.024.054-.024.06-.024.054-.024.054-.024.054-.018.054-.024.054-.024.06-.024.054-.024.054-.024.054-.024.054-.024.054-.018.06-.024.054-.024.054-.024.054-.024.054-.024.054-.024.06-.024.054-.018.054-.024.054-.024.054-.024.054-.024.054-.024.06-.024.054-.024.054-.018.054-.024.054-.024.054-.024.06-.024.054-.024.054-.024.054-.024.054-.018.054-.024.06-.024.054-.024.054-.024.054-.024.054-.024.054-.024.06-.025.053-.024.054-.024.054-.024.054-.024.054-.024.06-.008.038-.025.054-.018.054-.024.054-.024.054-.024.06-.024.054-.024.054-.024.054-.024.054-.018.054-.024.06-.024.054-.024.054-.024.054h1.201l.024-.054.018-.054.024-.054.024-.06.018-.054.024-.054.024-.054.018-.054.024-.054.024-.054.017-.054.024-.06.024-.054.018-.054.024-.054h1.71l.024.054.018.054.024.054.024.06.018.054.024.054.024.054.017.054.024.054.024.054.017.054.024.06.024.054.018.054.024.054h1.228l-.024-.054zm-1.92-1.636h-.947l.024-.054.018-.054.024-.06.024-.054.017-.054.024-.054.024-.06.024-.054.018-.054.024-.054.024-.054.017-.06.024-.054.024-.054.018-.054.024-.054.024-.06.024-.054.017-.054.024-.054.024-.06.018-.054.024-.054.024.054.018.054.024.06.024.054.018.054.024.054.024.06.018.054.024.054.024.054.017.054.026.059.018.054.024.054.024.054.018.054.024.06.024.054.018.054.024.054.024.06.018.054.024.054zm-3.394-.796H5.754v.875h.871v.545l-.047.03-.043.023-.053.025-.048.023-.053.024-.054.013-.059.017-.06.012-.06.012-.059.006-.066.006-.066.006H5.82l-.066-.006-.059-.006-.059-.012-.06-.012-.06-.018-.06-.018-.054-.024-.053-.023-.054-.025-.048-.03-.047-.03-.048-.035-.048-.036-.041-.037-.037-.042-.041-.041-.036-.042-.036-.048-.03-.048-.029-.048-.03-.054-.024-.054-.024-.06-.017-.048-.018-.053-.012-.054-.013-.055-.012-.053-.005-.06-.006-.054-.006-.06v-.138l.006-.06.006-.06.012-.066.011-.053.012-.06.018-.06.024-.054.018-.054.024-.054.03-.047.029-.055.03-.047.03-.043.036-.047.042-.043.036-.041.041-.036.042-.036.042-.036.048-.03.047-.03.048-.03.054-.024.053-.024.054-.018.054-.018.053-.012.06-.012.054-.006.059-.006h.126l.065.006.066.006.06.006.059.012.06.012.054.012.053.018.054.018.047.018.048.024.048.024.053.03.049.03.047.03.048.03.047.036.048.03.048.042.048.035.036-.047.041-.043.036-.047.042-.048.035-.048.036-.042.042-.048.036-.047.042-.049.035-.042.036-.047.042-.049.035-.041.036-.048.042-.049.036-.047.042-.042.036-.048-.048-.036-.048-.042-.048-.036-.048-.036-.047-.03-.048-.036-.053-.03-.048-.03-.053-.03-.048-.03-.054-.024-.054-.029-.053-.025-.054-.024-.054-.023-.053-.018-.049-.019-.053-.011-.054-.018-.054-.012-.053-.012-.054-.012-.059-.013-.06-.011-.054-.006-.065-.013-.06-.005h-.059l-.066-.006-.066-.006h-.256l-.06.006-.06.006-.059.005-.06.007-.06.012-.059.006-.06.012-.053.018-.06.012-.054.018-.053.012-.054.023-.06.018-.047.019-.06.03-.054.023-.054.025-.053.03-.054.03-.054.03-.047.03-.048.029-.048.036-.048.03-.047.036-.042.036-.048.042-.041.036-.042.042-.042.041-.036.042-.041.043-.036.042-.036.048-.036.047-.036.048-.03.048-.03.048-.029.048-.03.048-.03.054-.023.054-.024.054-.025.054-.023.054-.024.06-.018.053-.018.06-.018.055-.011.059-.019.06-.011.054-.007.06-.012.059-.005.066-.006.06v.06l-.006.066v.198l.006.06.006.06.005.06.007.053.012.06.006.055.012.059.018.054.012.06.017.054.012.054.024.054.018.048.023.054.025.053.024.055.023.053.03.048.03.054.029.048.03.048.036.048.03.048.036.042.036.048.036.041.041.043.042.042.042.035.042.043.041.035.042.037.048.035.048.036.047.036.048.03.048.03.053.03.048.03.054.03.054.023.053.025.054.024.059.023.054.018.054.024.054.018.059.012.054.018.06.012.053.013.06.011.06.012.06.007.059.005.059.006.066.006.059.006h.257l.065-.006.06-.006.066-.006.059-.005.066-.007.06-.006.06-.012.059-.012.053-.012.06-.011.054-.019.06-.018.053-.018.054-.018.054-.017.053-.025.06-.023.054-.024.06-.024.053-.03.054-.024.054-.03.053-.03.054-.03.047-.03.048-.03.048-.036.048-.03.047-.036.042-.03.048-.035.041-.037v-1.946h-.059z" />
</svg>