<svg viewBox="0 0 40 44" xmlns="http://www.w3.org/2000/svg">
   <path
      d="M6 0a1 1 0 00-.8 1.6L8 5.332v33.336L4.2 42.4A1 1 0 005 44h29c.304 0 .591-.138.781-.375l5-5A1.002 1.002 0 0039 37H18V1a1 1 0 00-1-1zm14 4v2c9.925 0 18 8.075 18 18 0 4.144-1.421 7.954-3.783 11h2.469A19.877 19.877 0 0040 24c0-11.028-8.972-20-20-20zm0 4v27h11.59C34.316 32.13 36 28.262 36 24c0-8.822-7.178-16-16-16zM6 9.74C2.544 13.134.307 17.765.03 22.912a20.3 20.3 0 00.047 2.84C.501 30.632 2.692 35.012 6 38.26v-2.973A17.9 17.9 0 012 24a17.9 17.9 0 014-11.287zm0 6.531A15.894 15.894 0 004 24c0 2.802.729 5.436 2 7.729z" />
</svg>