<?xml version="1.0" encoding="UTF-8" standalone="no"?>
<svg viewBox="0 0 40 44" width="40" height="44" version="1.1" id="svg606" xmlns="http://www.w3.org/2000/svg"
   xmlns:svg="http://www.w3.org/2000/svg">
   <defs id="defs610" />
   <path
      d="M 6,0 C 5.621,0 5.275469,0.2137344 5.105469,0.5527344 c -0.1690002,0.339 -0.1342502,0.743875 0.09375,1.046875 L 8,5.3320312 V 38.667969 l -3.8007812,3.732422 c -0.2270001,0.303 -0.2617501,0.707875 -0.09375,1.046875 C 4.2754687,43.786266 4.621,44 5,44 h 29 c 0.304,0 0.59125,-0.138 0.78125,-0.375 l 5,-5 c 0.24,-0.301 0.285141,-0.711594 0.119141,-1.058594 C 39.733391,37.221406 39.385,37 39,37 H 18 V 1 C 18,0.447 17.553,0 17,0 Z m 14,4 v 2 c 9.925,0 18,8.075 18,18 0,4.144 -1.421203,7.954 -3.783203,11 h 2.46875 C 38.774547,31.841 40,28.063 40,24 40,12.972 31.028,4 20,4 Z m 0,4 V 35 H 31.589844 C 34.315844,32.13 36,28.262 36,24 36,15.178 28.822,8 20,8 Z M 6,9.740234 C 2.544,13.134234 0.3072969,17.765109 0.0292969,22.912109 0.0102969,23.272109 0,23.635 0,24 c 0,0.59 0.026172,1.174953 0.076172,1.751953 0.426,4.88 2.6168281,9.260813 5.9238281,12.507813 V 35.287109 C 3.503,32.197109 2,28.273 2,24 2,19.727 3.503,15.802891 6,12.712891 Z m 0,6.53125 C 4.729,18.564484 4,21.198 4,24 c 0,2.802 0.729,5.435516 2,7.728516 z"
      id="path604" />
</svg>